<svg width="81" height="80" viewBox="0 0 81 80" fill="none" xmlns="http://www.w3.org/2000/svg">
<path opacity="0.4" d="M40.5013 6.6665C31.768 6.6665 24.668 13.7665 24.668 22.4998C24.668 31.0665 31.368 37.9998 40.1013 38.2998C40.368 38.2665 40.6346 38.2665 40.8346 38.2998C40.9013 38.2998 40.9346 38.2998 41.0013 38.2998C41.0346 38.2998 41.0346 38.2998 41.068 38.2998C49.6013 37.9998 56.3013 31.0665 56.3346 22.4998C56.3346 13.7665 49.2346 6.6665 40.5013 6.6665Z" fill="#F26135"/>
<path d="M57.4352 47.1666C48.1352 40.9666 32.9685 40.9666 23.6018 47.1666C19.3685 49.9999 17.0352 53.8333 17.0352 57.9333C17.0352 62.0333 19.3685 65.8333 23.5685 68.6333C28.2352 71.7666 34.3685 73.3333 40.5018 73.3333C46.6352 73.3333 52.7685 71.7666 57.4352 68.6333C61.6352 65.7999 63.9685 61.9999 63.9685 57.8666C63.9352 53.7666 61.6352 49.9666 57.4352 47.1666Z" fill="#F26135"/>
</svg>
