<svg width="80" height="80" viewBox="0 0 80 80" fill="none" xmlns="http://www.w3.org/2000/svg">
<path opacity="0.4" d="M40.0013 73.3332C58.4108 73.3332 73.3346 58.4093 73.3346 39.9998C73.3346 21.5903 58.4108 6.6665 40.0013 6.6665C21.5918 6.6665 6.66797 21.5903 6.66797 39.9998C6.66797 58.4093 21.5918 73.3332 40.0013 73.3332Z" fill="#2E8B57"/>
<path d="M35.2648 51.9332C34.5982 51.9332 33.9648 51.6665 33.4982 51.1998L24.0648 41.7665C23.0982 40.7998 23.0982 39.1998 24.0648 38.2332C25.0315 37.2665 26.6315 37.2665 27.5982 38.2332L35.2648 45.8998L52.3982 28.7665C53.3648 27.7998 54.9648 27.7998 55.9315 28.7665C56.8982 29.7332 56.8982 31.3332 55.9315 32.2998L37.0315 51.1998C36.5648 51.6665 35.9315 51.9332 35.2648 51.9332Z" fill="#2E8B57"/>
</svg>
