<svg width="57" height="56" viewBox="0 0 57 56" fill="none" xmlns="http://www.w3.org/2000/svg">
<path d="M30.8335 4.6665H14.5002C13.2625 4.6665 12.0755 5.15817 11.2003 6.03334C10.3252 6.90851 9.8335 8.09549 9.8335 9.33317V46.6665C9.8335 47.9042 10.3252 49.0912 11.2003 49.9663C12.0755 50.8415 13.2625 51.3332 14.5002 51.3332H42.5002C43.7378 51.3332 44.9248 50.8415 45.8 49.9663C46.6752 49.0912 47.1668 47.9042 47.1668 46.6665V20.9998M30.8335 4.6665L47.1668 20.9998M30.8335 4.6665V20.9998H47.1668" stroke="#8692A6" stroke-width="2" stroke-linecap="round" stroke-linejoin="round"/>
<path d="M42.1048 40.56V46C42.1048 46.56 41.6648 47 41.1048 47H25.9048C25.3448 47 24.9048 46.56 24.9048 46V40.56C24.9048 40 25.3448 39.56 25.9048 39.56C26.4648 39.56 26.9048 40 26.9048 40.56V45H40.1048V40.56C40.1048 40 40.5448 39.56 41.1048 39.56C41.6648 39.56 42.1048 40 42.1048 40.56ZM30.2248 34.78L32.5048 32.46V41.12C32.5048 41.68 32.9448 42.12 33.5048 42.12C34.0648 42.12 34.5048 41.68 34.5048 41.12V32.46L36.7848 34.78C36.9848 34.98 37.2448 35.08 37.5048 35.08C37.7648 35.08 38.0048 34.98 38.2048 34.8C38.6048 34.42 38.6048 33.78 38.2248 33.38L34.2448 29.3C34.0648 29.1 33.8048 29 33.5248 29C33.2648 29 33.0048 29.1 32.8048 29.3L28.8248 33.38C28.4448 33.78 28.4448 34.4 28.8448 34.8C29.2048 35.18 29.8448 35.16 30.2248 34.78Z" fill="#8692A6"/>
</svg>
