<svg width="442" height="468" viewBox="0 0 442 468" fill="none" xmlns="http://www.w3.org/2000/svg">
<path d="M268.253 154.69C314.905 207.838 362.853 239.381 396.114 288.208C429.807 337.034 448.813 403.145 439.742 469.687C430.671 535.798 393.522 601.908 337.799 631.723C282.076 661.969 207.347 655.488 135.641 651.599C64.3672 647.71 -4.74661 646.414 -59.6058 616.167C-114.897 586.353 -155.933 527.156 -172.78 463.206C-189.194 399.256 -181.419 330.121 -167.164 256.233C-152.909 181.912 -132.175 102.839 -81.2038 51.4199C-30.2323 -0.431443 51.4084 -24.1966 114.475 1.29694C177.541 26.3584 222.033 101.543 268.253 154.69Z" fill="#FFF4E5"/>
</svg>
