<svg width="139" height="36" viewBox="0 0 139 36" fill="none" xmlns="http://www.w3.org/2000/svg">
<path d="M1.47358 34.8026C0.935805 34.8026 0.556068 34.6867 0.333512 34.455C0.111128 34.2235 0 33.848 0 33.329V19.234C0 17.5845 0.375196 16.2455 1.12593 15.2169C1.87654 14.188 2.7061 13.6736 3.61423 13.6736C4.17004 13.6736 4.44799 14.0076 4.44799 14.6746V33.329C4.44799 33.848 4.33699 34.2235 4.11447 34.455C3.89235 34.6867 3.51218 34.8026 2.97483 34.8026H1.47358ZM19.909 27.6577C19.909 28.1581 19.8071 28.5149 19.6032 28.7279C19.3994 28.941 19.0286 29.0478 18.4913 29.0478H9.8729C10.0767 29.7521 10.5306 30.3312 11.2351 30.7854C11.9395 31.2393 12.857 31.4663 13.9875 31.4663C14.9882 31.4663 15.9148 31.346 16.7675 31.1049C17.6202 30.864 18.0555 30.7437 18.0743 30.7437C18.5746 30.7437 18.8248 31.0124 18.8248 31.5498V33.1625C18.8248 33.7739 18.6301 34.2001 18.241 34.4412C17.2587 35.0526 15.6925 35.3587 13.5425 35.3587C11.2258 35.3587 9.30304 34.6729 7.77385 33.3013C6.24462 31.9297 5.48031 30.067 5.48031 27.7134C5.48031 25.582 6.17055 23.7749 7.55151 22.292C8.93226 20.8094 10.6605 20.068 12.7362 20.068C15.0346 20.068 16.8045 20.7491 18.0464 22.1113C19.2881 23.4737 19.909 25.3224 19.909 27.6577ZM12.792 23.7934C11.9765 23.7934 11.314 24.011 10.804 24.4469C10.2944 24.8822 9.97495 25.4612 9.84506 26.1843H15.5999C15.5073 25.4612 15.2246 24.8822 14.752 24.4469C14.2794 24.011 13.6261 23.7934 12.792 23.7934ZM34.2579 22.1254C35.3886 23.4413 35.9538 25.3965 35.9538 27.9914V33.329C35.9538 33.8666 35.838 34.2465 35.6063 34.4691C35.3748 34.6912 34.9995 34.8026 34.4803 34.8026H32.9792C32.4602 34.8026 32.0849 34.6912 31.8532 34.4691C31.6215 34.2465 31.5056 33.8666 31.5056 33.329V28.1305C31.5056 26.8144 31.2741 25.86 30.8105 25.2668C30.3104 24.6183 29.5597 24.2937 28.5587 24.2937C27.5581 24.2937 26.7795 24.6183 26.2236 25.2668C25.6675 25.9155 25.3893 26.8607 25.3893 28.1025V33.329C25.3893 33.848 25.2784 34.2235 25.0558 34.455C24.8335 34.6867 24.4535 34.8026 23.9162 34.8026H22.4147C21.8772 34.8026 21.4974 34.6867 21.2749 34.455C21.0526 34.2235 20.9413 33.848 20.9413 33.329V21.3469C20.9413 20.6797 21.2287 20.3461 21.803 20.3461C22.2109 20.3461 22.6558 20.5082 23.1376 20.8326C23.6196 21.1568 24.0459 21.6155 24.4163 22.2088C24.9911 21.5231 25.7093 20.9947 26.5712 20.6241C27.4329 20.2533 28.318 20.068 29.2262 20.068C31.376 20.068 33.0533 20.7538 34.2579 22.1254ZM51.6373 13.6736C52.1931 13.6736 52.471 14.0076 52.471 14.6746V34.0798C52.471 34.7471 52.184 35.0806 51.6093 35.0806C51.2202 35.0806 50.7848 34.9185 50.3028 34.5939C49.8208 34.2697 49.3946 33.8295 49.0241 33.2734C48.5235 33.8666 47.8192 34.3623 46.9111 34.7608C46.0027 35.1594 45.0207 35.3587 43.9641 35.3587C41.7956 35.3587 40.0256 34.6405 38.6542 33.204C37.2827 31.7675 36.5968 29.9374 36.5968 27.7134C36.5968 25.5262 37.2871 23.7052 38.668 22.2504C40.0488 20.7956 41.8141 20.068 43.9641 20.068C45.5025 20.068 46.8555 20.4759 48.023 21.2914V19.234C48.023 17.5845 48.3983 16.2455 49.1491 15.2169C49.8996 14.188 50.7291 13.6736 51.6373 13.6736ZM42.1014 30.3405C42.7687 31.0169 43.5934 31.3554 44.5758 31.3554C45.5581 31.3554 46.378 31.0169 47.0361 30.3405C47.694 29.6641 48.023 28.7883 48.023 27.7134C48.023 26.6383 47.694 25.7626 47.0361 25.0859C46.378 24.4096 45.5581 24.0715 44.5758 24.0715C43.5934 24.0715 42.7687 24.4096 42.1014 25.0859C41.4344 25.7626 41.1006 26.6383 41.1006 27.7134C41.1006 28.7883 41.4344 29.6641 42.1014 30.3405ZM68.5159 20.3461C69.0905 20.3461 69.3775 20.6797 69.3775 21.3469V34.0798C69.3775 34.7471 69.0905 35.0806 68.5159 35.0806C68.1267 35.0806 67.6912 34.9185 67.2093 34.5939C66.7273 34.2697 66.3011 33.8295 65.9304 33.2734C65.4301 33.8666 64.7258 34.3623 63.8176 34.7608C62.9093 35.1594 61.9273 35.3587 60.8707 35.3587C58.7022 35.3587 56.9321 34.6405 55.5608 33.204C54.1891 31.7675 53.5034 29.9374 53.5034 27.7134C53.5034 25.5262 54.1936 23.7052 55.5746 22.2504C56.9553 20.7956 58.7206 20.068 60.8707 20.068C61.9273 20.068 62.9093 20.2672 63.8176 20.6656C64.7258 21.0643 65.4301 21.5599 65.9304 22.1531C66.3011 21.597 66.7273 21.1568 67.2093 20.8326C67.6912 20.5082 68.1267 20.3461 68.5159 20.3461ZM59.008 30.3405C59.6752 31.0169 60.4999 31.3554 61.4823 31.3554C62.4645 31.3554 63.2845 31.0169 63.9426 30.3405C64.6005 29.6641 64.9296 28.7883 64.9296 27.7134C64.9296 26.6383 64.6005 25.7626 63.9426 25.0859C63.2845 24.4096 62.4645 24.0715 61.4823 24.0715C60.4999 24.0715 59.6752 24.4096 59.008 25.0859C58.3409 25.7626 58.0069 26.6383 58.0069 27.7134C58.0069 28.7883 58.3409 29.6641 59.008 30.3405Z" fill="#244E97"/>
<path d="M76.6047 35.2752C75.6222 35.2752 74.6492 35.1824 73.6854 34.9972C72.7217 34.812 72.0359 34.608 71.6281 34.3856C71.1278 34.1077 70.8775 33.6904 70.8775 33.1346V31.7724C70.8775 31.0866 71.1742 30.7437 71.7671 30.7437C71.8783 30.7437 72.4622 30.9058 73.5186 31.2301C74.575 31.5543 75.7334 31.7167 76.9938 31.7167C78.0872 31.7167 78.634 31.3554 78.634 30.6323C78.634 30.2803 78.4859 30.03 78.1892 29.8818C77.8925 29.7333 77.309 29.5759 76.4377 29.4092L75.5481 29.2422C74.0284 28.9645 72.8654 28.5102 72.0591 27.88C71.2528 27.2498 70.8496 26.2861 70.8496 24.9888C70.8496 23.265 71.4289 22.0281 72.5873 21.2775C73.7457 20.5265 75.2331 20.1513 77.0494 20.1513C79.0695 20.1513 80.6636 20.4295 81.8311 20.9853C82.3316 21.2264 82.5817 21.6434 82.5817 22.2366V23.5988C82.5817 24.2474 82.2852 24.5717 81.692 24.5717C81.4883 24.5717 80.8629 24.4281 79.8157 24.1408C78.7683 23.8534 77.8278 23.7099 76.9938 23.7099C75.9001 23.7099 75.3535 24.0249 75.3535 24.6551C75.3535 24.9701 75.4926 25.1973 75.7705 25.3364C76.0486 25.4753 76.6047 25.6188 77.4387 25.7672L78.217 25.9063C79.8108 26.1843 81.0295 26.6475 81.8729 27.2962C82.7163 27.945 83.1378 29.0201 83.1378 30.5212C83.1378 32.1706 82.5355 33.3753 81.3306 34.1352C80.126 34.8951 78.5506 35.2752 76.6047 35.2752ZM93.5947 30.8828C94.0394 30.8828 94.262 31.1421 94.262 31.661V33.3013C94.262 33.746 94.2017 34.0704 94.0812 34.2742C93.9608 34.478 93.6873 34.6635 93.2609 34.8303C92.6125 35.0899 91.7597 35.2196 90.7035 35.2196C87.0337 35.2196 85.1987 33.2273 85.1987 29.2422V24.4607H84.031C83.5121 24.4607 83.1369 24.3492 82.9052 24.1269C82.6735 23.9046 82.5576 23.5244 82.5576 22.9871V22.0975C82.5576 21.5599 82.6735 21.1802 82.9052 20.9576C83.1369 20.7353 83.5121 20.6241 84.031 20.6241H85.1987V18.4835C85.1987 17.9645 85.3099 17.589 85.5325 17.3573C85.7546 17.1257 86.1348 17.0099 86.6721 17.0099H88.1734C88.7109 17.0099 89.0909 17.1257 89.3134 17.3573C89.5356 17.589 89.6469 17.9645 89.6469 18.4835V20.6241H92.4828C93.0016 20.6241 93.3768 20.7353 93.6086 20.9576C93.8401 21.1802 93.9559 21.5599 93.9559 22.0975V22.9871C93.9559 23.5244 93.8401 23.9046 93.6086 24.1269C93.3768 24.3492 93.0016 24.4607 92.4828 24.4607H89.6469V28.7141C89.6469 29.6223 89.809 30.257 90.1334 30.6184C90.4578 30.9798 90.9906 31.1607 91.732 31.1607C92.1026 31.1607 92.4778 31.1143 92.858 31.0216C93.2377 30.929 93.4833 30.8828 93.5947 30.8828ZM108.944 20.3461C109.519 20.3461 109.806 20.6797 109.806 21.3469V34.0798C109.806 34.7471 109.519 35.0806 108.944 35.0806C108.555 35.0806 108.12 34.9185 107.638 34.5939C107.156 34.2697 106.73 33.8295 106.359 33.2734C105.859 33.8666 105.154 34.3623 104.246 34.7608C103.338 35.1594 102.356 35.3587 101.299 35.3587C99.1308 35.3587 97.3606 34.6405 95.9892 33.204C94.6176 31.7675 93.9319 29.9374 93.9319 27.7134C93.9319 25.5262 94.6223 23.7052 96.0032 22.2504C97.3837 20.7956 99.1491 20.068 101.299 20.068C102.356 20.068 103.338 20.2672 104.246 20.6656C105.154 21.0643 105.859 21.5599 106.359 22.1531C106.73 21.597 107.156 21.1568 107.638 20.8326C108.12 20.5082 108.555 20.3461 108.944 20.3461ZM99.4365 30.3405C100.104 31.0169 100.928 31.3554 101.911 31.3554C102.893 31.3554 103.713 31.0169 104.371 30.3405C105.029 29.6641 105.358 28.7883 105.358 27.7134C105.358 26.6383 105.029 25.7626 104.371 25.0859C103.713 24.4096 102.893 24.0715 101.911 24.0715C100.928 24.0715 100.104 24.4096 99.4365 25.0859C98.7694 25.7626 98.4357 26.6383 98.4357 27.7134C98.4357 28.7883 98.7694 29.6641 99.4365 30.3405ZM118.539 35.3587C116.482 35.3587 114.684 34.6494 113.146 33.2317C111.608 31.8141 110.838 29.9744 110.838 27.7134C110.838 25.4337 111.612 23.5896 113.16 22.181C114.707 20.7721 116.528 20.068 118.623 20.068C120.124 20.068 121.366 20.2812 122.348 20.7074C122.756 20.8929 123.024 21.092 123.154 21.3052C123.284 21.5181 123.349 21.8008 123.349 22.1531V23.5711C123.349 24.2566 123.052 24.5995 122.459 24.5995C122.218 24.5995 121.76 24.5116 121.083 24.3354C120.407 24.1595 119.763 24.0715 119.151 24.0715C117.983 24.0715 117.057 24.4142 116.371 25.1001C115.685 25.7858 115.342 26.6569 115.342 27.7134C115.342 28.7696 115.671 29.6409 116.329 30.3267C116.987 31.0124 117.9 31.3554 119.068 31.3554C119.865 31.3554 120.62 31.2719 121.333 31.1049C122.047 30.9382 122.459 30.8548 122.57 30.8548C123.089 30.8548 123.349 31.2348 123.349 31.9947V33.3013C123.349 33.6534 123.284 33.9362 123.154 34.1492C123.024 34.3623 122.756 34.5616 122.348 34.7471C121.403 35.1549 120.133 35.3587 118.539 35.3587ZM138.782 33.635C139.023 33.95 139.065 34.2235 138.907 34.455C138.75 34.6867 138.476 34.8026 138.087 34.8026H136.002C135.075 34.8026 134.297 34.4041 133.667 33.6072L130.581 29.6871L129.107 31.1607V33.329C129.107 33.848 128.996 34.2235 128.774 34.455C128.551 34.6867 128.171 34.8026 127.634 34.8026H126.132C125.595 34.8026 125.215 34.6867 124.993 34.455C124.77 34.2235 124.659 33.848 124.659 33.329V19.234C124.659 17.5845 125.034 16.2455 125.785 15.2169C126.536 14.188 127.365 13.6736 128.273 13.6736C128.829 13.6736 129.107 14.0076 129.107 14.6746V26.1843L133.639 21.6804C134.065 21.2541 134.426 20.9715 134.723 20.8326C135.02 20.6935 135.483 20.6241 136.113 20.6241H138.143C138.495 20.6241 138.717 20.7538 138.81 21.0133C138.903 21.2726 138.819 21.5231 138.56 21.764L133.556 26.7404L138.782 33.635Z" fill="#57616B"/>
<path fill-rule="evenodd" clip-rule="evenodd" d="M51.1461 0.641357C51.1461 0.641357 53.1964 7.13077 57.973 8.84422C62.7495 10.5574 76.1696 10.9205 78.8691 12.4782C81.5688 14.0357 82.8926 18.3708 82.8926 18.3708C82.8926 18.3708 77.8308 17.5141 72.224 16.8651C64.794 16.0051 53.3692 15.4288 51.6915 6.09254C50.9125 1.75761 51.1461 0.641357 51.1461 0.641357Z" fill="url(#paint0_linear_40000329_4483)"/>
<defs>
<linearGradient id="paint0_linear_40000329_4483" x1="79.4349" y1="2.20233" x2="54.5732" y2="16.8083" gradientUnits="userSpaceOnUse">
<stop stop-color="#F8275B"/>
<stop offset="1" stop-color="#FA9600"/>
</linearGradient>
</defs>
</svg>
