<svg width="436" height="448" viewBox="0 0 436 448" fill="none" xmlns="http://www.w3.org/2000/svg">
<g clip-path="url(#clip0_40000794_47100)">
<rect width="436" height="448" fill="white"/>
<path d="M93.038 -277.978C110.117 -278.233 127.031 -276.182 143.894 -274.022C180.612 -269.293 216.711 -260.877 251.599 -248.913C306.099 -230.526 356.79 -203.046 401.336 -167.737C404.345 -165.31 407.973 -163.369 409.402 -159.485C408.732 -158.708 408.074 -157.908 407.379 -157.155C355.128 -100.141 302.877 -43.1035 250.625 13.9587C230.618 35.803 210.577 57.6029 190.503 79.3582C186.104 77.3315 182.666 74.0063 178.709 71.385C152.857 54.31 123.845 45.7786 93.0253 42.1379V-53.7223C95.0859 -55.2999 95.8316 -57.6785 96.9693 -59.7901C107.272 -79.0131 123.137 -91.4523 145.247 -96.3187C152.837 -97.9788 160.641 -98.5554 168.406 -98.0298L201.779 -95.7969C200.515 -98.0541 198.48 -98.7458 196.811 -99.7895C187.153 -105.857 177.116 -111.379 166.876 -116.525C153.224 -123.313 140.837 -132.223 130.216 -142.896C114.806 -158.429 103.935 -176.232 100.838 -197.907C99.3333 -208.489 97.3108 -218.987 95.541 -229.533C95.1744 -231.741 94.8963 -233.95 93.0127 -235.601L93.038 -277.978Z" fill="#FD881E"/>
<path d="M440.74 483.066C439.893 492.847 438.932 502.592 436.126 512.131C433.449 521.633 428.834 530.531 422.549 538.308L421.449 539.194L421.55 539.121C413.32 545.965 403.625 550.237 393.524 553.805C370.454 561.948 347.383 570.055 324.35 578.283C322.1 579.084 319.294 579.096 317.903 581.572H139.773C139.9 579.861 138.408 579.145 137.371 578.283C119.509 562.919 108.296 543.708 101.584 521.828C97.1973 507.629 95.6044 493.09 94.8965 478.394C95.6676 469.571 95.3894 460.7 96.7294 451.889C101.634 419.73 112.177 389.694 132.125 363.056C132.719 362.255 133.529 361.539 133.478 360.422C133.888 360.271 134.24 360.002 134.487 359.653C134.733 359.304 134.862 358.89 134.856 358.468V358.602C136.815 357.983 137.637 356.175 138.851 354.888C161.706 329.779 190.807 317.899 225.229 317.268C251.055 316.831 275.795 322.195 299.877 330.617C334.185 342.619 365.801 359.136 392.803 383.14C412.17 400.361 426.67 420.567 434.861 444.79C438.982 457.29 440.361 470.105 440.74 483.066ZM262.205 549.813C285.211 549.737 308.165 547.707 330.797 543.745C344.867 541.22 358.773 538.102 371.642 531.694C377.294 528.961 382.315 525.164 386.407 520.529C390.498 515.895 393.577 510.517 395.458 504.716C402.348 484.923 399.794 466.112 389.138 448.139C382.144 436.58 373.036 426.327 362.249 417.873C335.235 396.15 304.099 381.745 270.801 371.526C254.684 366.575 238.174 363.747 221.133 364.403C194.169 365.458 173.096 376.66 158.432 398.383C144.527 418.853 137.628 442.982 138.699 467.399C139.546 490.384 148.129 510.335 166.7 525.553C179.48 536.038 194.726 541.682 210.945 545.14C228.529 548.987 246.391 549.643 262.205 549.873V549.813Z" fill="white"/>
<path d="M222.979 141.578C222.169 140.148 221.871 138.502 222.132 136.894C222.688 126.882 219.528 117.829 214.547 109.188C211.327 103.295 207.356 97.8076 202.728 92.8534C209.629 87.8716 217.385 84.0888 225.646 81.6764C245.443 75.9483 262.458 82.0162 270.928 96.0815C272.04 97.914 273.102 98.7877 275.428 97.8897C284.366 94.431 293.354 91.1179 302.203 87.7927C302.203 85.0015 300.938 83.0962 300.028 81.106C294.1 68.6225 286.798 56.7835 278.247 45.791C274 40.3056 273.974 40.3056 279.777 35.8518C327.064 -0.49068 374.351 -36.8332 421.638 -73.1756C435.746 -84.0371 449.765 -95.02 463.823 -105.942C473.443 -95.7481 481.369 -84.3405 489.245 -72.9087C509.491 -43.4126 525.6 -11.4836 537.155 22.0535C538.609 26.2282 540.48 30.3543 540.366 34.9052C529.077 38.0848 517.801 41.3008 506.487 44.4439C499.977 46.2522 500.419 46.0458 502.177 51.7254C502.303 52.1137 502.341 52.5142 502.442 52.9389C514.034 95.0742 516.272 137.804 510.849 180.947C505.881 220.448 494.756 258.482 480.408 295.702C479.953 296.916 480.004 298.639 477.817 298.906C476.767 298.142 475.567 297.341 474.467 296.479C464.076 287.753 457.388 276.673 452.079 264.623C446.529 252.038 444.355 238.664 441.688 225.388C436.631 200.352 429.514 175.898 418.933 152.464C412.827 138.981 404.8 126.736 393.549 116.639C379.998 104.504 364.107 97.4892 345.423 96.5062C331.518 95.766 318.194 98.1931 305.072 102.21C284.328 108.557 265.075 118.084 245.809 127.622C237.696 131.469 230.042 136.148 222.979 141.578V141.578Z" fill="#FD881E"/>
<path d="M134.781 358.602C134.326 355.592 135.969 353.129 137.094 350.568C149.015 323.7 161.909 297.244 174.765 270.776C187.167 245.218 199.404 219.575 209.327 192.998C209.896 191.493 210.68 190.061 211.362 188.592C212.626 197.185 213.992 205.764 216.899 214.077C230.11 251.625 255.645 277.183 295.681 288.652C299.043 289.61 300.573 288.979 302.001 286.006C306.969 275.545 312.177 265.193 317.247 254.769C317.929 253.373 319.067 252.002 318.397 250.084C317.677 249.89 316.893 249.647 316.084 249.477C302.42 246.78 289.639 240.951 278.829 232.487C262.914 220.109 253.054 204.345 251.752 184.418C250.172 160.049 260.411 148.981 276.427 141.469C292.152 134.002 309.631 130.594 327.145 131.579C334.733 131.857 342.183 133.614 349.042 136.744C355.901 139.873 362.025 144.309 367.041 149.782C375.89 159.042 381.756 169.879 386.167 181.542C394.175 203.017 400.074 225.164 403.789 247.693C406.545 263.834 409.541 279.89 415.167 295.411C428.524 332.708 453.85 359.617 491.142 376.138C489.877 381.296 486.945 385.847 484.669 390.555C469.904 421.344 454.886 452.023 440.829 483.115C440.45 470.154 439.072 457.338 434.875 444.911C426.683 420.64 412.183 400.482 392.817 383.262C365.815 359.257 334.199 342.741 299.89 330.738C275.808 322.243 251.069 316.94 225.242 317.389C190.82 317.959 161.72 329.84 138.864 355.01C137.562 356.211 136.74 357.983 134.781 358.602Z" fill="#FD881E"/>
<path d="M491.053 376.089C453.795 359.52 428.47 332.611 415.079 295.362C409.516 279.841 406.52 263.809 403.701 247.645C399.986 225.115 394.086 202.968 386.079 181.493C381.667 169.83 375.751 158.993 366.953 149.734C361.936 144.26 355.812 139.824 348.954 136.695C342.095 133.565 334.645 131.808 327.056 131.53C309.543 130.545 292.064 133.953 276.339 141.421C260.323 148.933 250.083 160 251.663 184.369C252.927 204.296 262.826 220.06 278.741 232.439C289.551 240.902 302.332 246.731 315.995 249.429C316.804 249.599 317.588 249.841 318.309 250.035C318.979 251.953 317.841 253.324 317.158 254.72C312.102 265.144 306.881 275.496 301.913 285.957C300.51 288.93 298.98 289.598 295.592 288.603C255.557 277.098 230.021 251.577 216.811 214.029C213.903 205.764 212.526 197.184 211.274 188.544C210.707 181.381 210.88 174.181 211.792 167.051C212.943 157.513 216.141 148.848 222.891 141.566C229.926 136.111 237.555 131.403 245.646 127.525C264.911 117.986 284.164 108.46 304.909 102.113C318.03 98.096 331.38 95.6688 345.26 96.4091C363.944 97.3921 379.834 104.407 393.386 116.542C404.637 126.639 412.664 138.884 418.77 152.367C429.401 175.801 436.531 200.255 441.524 225.291C444.192 238.567 446.366 251.989 451.915 264.525C457.225 276.576 463.912 287.656 474.303 296.382C475.403 297.304 476.604 298.105 477.653 298.809C479.84 298.542 479.79 296.782 480.245 295.605C494.593 258.385 505.717 220.364 510.685 180.85C516.108 137.707 513.871 94.9771 502.279 52.8418C502.178 52.4413 502.14 52.0408 502.013 51.6282C500.256 45.9487 499.814 46.155 506.324 44.3468C517.638 41.2036 528.914 37.9877 540.203 34.8081C542.441 36.9197 542.934 39.7959 543.654 42.49C554.823 84.2407 558.466 127.519 554.425 170.449C549.52 224.672 534.198 276.321 513.252 326.624C507.171 341.187 500.547 355.665 494.125 370.155C493.392 372.242 492.734 374.451 491.053 376.089Z" fill="white"/>
<path d="M463.821 -105.906C449.764 -94.9833 435.745 -84.0612 421.637 -73.139C374.366 -36.7803 327.079 -0.437857 279.775 35.8885C273.973 40.3423 273.998 40.3423 278.246 45.8276C286.808 56.8305 294.118 68.6819 300.052 81.179C300.988 83.1693 302.264 85.0746 302.226 87.8658C293.377 91.191 284.389 94.5041 275.452 97.9627C273.126 98.8608 272.064 97.9628 270.952 96.1545C262.482 82.0892 245.466 76.0213 225.67 81.7494C217.409 84.1618 209.652 87.9446 202.751 92.9264C199.199 89.4071 195.659 85.8756 192.082 82.3805C191.587 82.0369 191.187 81.5839 190.914 81.0599C190.641 80.536 190.504 79.9565 190.514 79.3708C210.555 57.575 230.596 35.7752 250.637 13.9713C302.888 -43.0424 355.139 -100.08 407.39 -157.143C408.085 -157.895 408.743 -158.696 409.413 -159.473C410.673 -159.371 411.857 -158.852 412.763 -158.004C431.105 -141.912 448.803 -125.116 463.821 -105.906Z" fill="white"/>
<path d="M262.204 549.873C246.389 549.642 228.527 548.987 210.968 545.261C194.762 541.803 179.516 536.16 166.723 525.674C148.153 510.456 139.569 490.481 138.722 467.52C137.652 443.103 144.551 418.975 158.456 398.504C173.057 376.781 194.193 365.58 221.157 364.524C238.198 363.868 254.707 366.696 270.825 371.647C304.173 381.866 335.296 396.271 362.273 417.994C373.059 426.448 382.168 436.701 389.161 448.26C399.78 466.233 402.334 485.044 395.482 504.837C393.603 510.636 390.529 516.012 386.442 520.647C382.355 525.282 377.338 529.08 371.691 531.815C358.822 538.223 344.916 541.342 330.846 543.866C308.195 547.811 285.224 549.821 262.204 549.873Z" fill="#FD881E"/>
</g>
<defs>
<clipPath id="clip0_40000794_47100">
<rect width="436" height="448" fill="white"/>
</clipPath>
</defs>
</svg>
