<svg width="139" height="36" viewBox="0 0 139 36" fill="none" xmlns="http://www.w3.org/2000/svg">
<path d="M1.47358 34.8028C0.935805 34.8028 0.556068 34.6869 0.333512 34.4553C0.111128 34.2237 0 33.8483 0 33.3293V19.2342C0 17.5848 0.375196 16.2457 1.12593 15.2171C1.87654 14.1882 2.7061 13.6738 3.61423 13.6738C4.17004 13.6738 4.44799 14.0078 4.44799 14.6748V33.3293C4.44799 33.8483 4.33699 34.2237 4.11447 34.4553C3.89235 34.6869 3.51218 34.8028 2.97483 34.8028H1.47358ZM19.909 27.6579C19.909 28.1584 19.8071 28.5151 19.6032 28.7281C19.3994 28.9413 19.0286 29.048 18.4913 29.048H9.8729C10.0767 29.7523 10.5306 30.3314 11.2351 30.7856C11.9395 31.2395 12.857 31.4666 13.9875 31.4666C14.9882 31.4666 15.9148 31.3462 16.7675 31.1051C17.6202 30.8643 18.0555 30.744 18.0743 30.744C18.5746 30.744 18.8248 31.0127 18.8248 31.55V33.1627C18.8248 33.7741 18.6301 34.2003 18.241 34.4414C17.2587 35.0528 15.6925 35.3589 13.5425 35.3589C11.2258 35.3589 9.30304 34.6731 7.77385 33.3016C6.24462 31.93 5.48031 30.0673 5.48031 27.7137C5.48031 25.5822 6.17055 23.7751 7.55151 22.2922C8.93226 20.8097 10.6605 20.0682 12.7362 20.0682C15.0346 20.0682 16.8045 20.7494 18.0464 22.1116C19.2881 23.4739 19.909 25.3226 19.909 27.6579ZM12.792 23.7937C11.9765 23.7937 11.314 24.0113 10.804 24.4471C10.2944 24.8824 9.97495 25.4615 9.84506 26.1845H15.5999C15.5073 25.4615 15.2246 24.8824 14.752 24.4471C14.2794 24.0113 13.6261 23.7937 12.792 23.7937ZM34.2579 22.1256C35.3886 23.4416 35.9538 25.3967 35.9538 27.9917V33.3293C35.9538 33.8668 35.838 34.2468 35.6063 34.4693C35.3748 34.6915 34.9995 34.8028 34.4803 34.8028H32.9792C32.4602 34.8028 32.0849 34.6915 31.8532 34.4693C31.6215 34.2468 31.5056 33.8668 31.5056 33.3293V28.1307C31.5056 26.8147 31.2741 25.8602 30.8105 25.267C30.3104 24.6186 29.5597 24.294 28.5587 24.294C27.5581 24.294 26.7795 24.6186 26.2236 25.267C25.6675 25.9157 25.3893 26.861 25.3893 28.1028V33.3293C25.3893 33.8483 25.2784 34.2237 25.0558 34.4553C24.8335 34.6869 24.4535 34.8028 23.9162 34.8028H22.4147C21.8772 34.8028 21.4974 34.6869 21.2749 34.4553C21.0526 34.2237 20.9413 33.8483 20.9413 33.3293V21.3471C20.9413 20.6799 21.2287 20.3464 21.803 20.3464C22.2109 20.3464 22.6558 20.5085 23.1376 20.8329C23.6196 21.157 24.0459 21.6157 24.4163 22.2091C24.9911 21.5233 25.7093 20.9949 26.5712 20.6244C27.4329 20.2535 28.318 20.0682 29.2262 20.0682C31.376 20.0682 33.0533 20.7541 34.2579 22.1256ZM51.6373 13.6738C52.1931 13.6738 52.471 14.0078 52.471 14.6748V34.08C52.471 34.7473 52.184 35.0808 51.6093 35.0808C51.2202 35.0808 50.7848 34.9187 50.3028 34.5941C49.8208 34.27 49.3946 33.8297 49.0241 33.2737C48.5235 33.8668 47.8192 34.3626 46.9111 34.7611C46.0027 35.1596 45.0207 35.3589 43.9641 35.3589C41.7956 35.3589 40.0256 34.6408 38.6542 33.2043C37.2827 31.7677 36.5968 29.9376 36.5968 27.7137C36.5968 25.5265 37.2871 23.7055 38.668 22.2506C40.0488 20.7958 41.8141 20.0682 43.9641 20.0682C45.5025 20.0682 46.8555 20.4761 48.023 21.2916V19.2342C48.023 17.5848 48.3983 16.2457 49.1491 15.2171C49.8996 14.1882 50.7291 13.6738 51.6373 13.6738ZM42.1014 30.3408C42.7687 31.0172 43.5934 31.3556 44.5758 31.3556C45.5581 31.3556 46.378 31.0172 47.0361 30.3408C47.694 29.6643 48.023 28.7886 48.023 27.7137C48.023 26.6386 47.694 25.7628 47.0361 25.0862C46.378 24.4098 45.5581 24.0718 44.5758 24.0718C43.5934 24.0718 42.7687 24.4098 42.1014 25.0862C41.4344 25.7628 41.1006 26.6386 41.1006 27.7137C41.1006 28.7886 41.4344 29.6643 42.1014 30.3408ZM68.5159 20.3464C69.0905 20.3464 69.3775 20.6799 69.3775 21.3471V34.08C69.3775 34.7473 69.0905 35.0808 68.5159 35.0808C68.1267 35.0808 67.6912 34.9187 67.2093 34.5941C66.7273 34.27 66.3011 33.8297 65.9304 33.2737C65.4301 33.8668 64.7258 34.3626 63.8176 34.7611C62.9093 35.1596 61.9273 35.3589 60.8707 35.3589C58.7022 35.3589 56.9321 34.6408 55.5608 33.2043C54.1891 31.7677 53.5034 29.9376 53.5034 27.7137C53.5034 25.5265 54.1936 23.7055 55.5746 22.2506C56.9553 20.7958 58.7206 20.0682 60.8707 20.0682C61.9273 20.0682 62.9093 20.2674 63.8176 20.6658C64.7258 21.0646 65.4301 21.5601 65.9304 22.1533C66.3011 21.5972 66.7273 21.157 67.2093 20.8329C67.6912 20.5085 68.1267 20.3464 68.5159 20.3464ZM59.008 30.3408C59.6752 31.0172 60.4999 31.3556 61.4823 31.3556C62.4645 31.3556 63.2845 31.0172 63.9426 30.3408C64.6005 29.6643 64.9296 28.7886 64.9296 27.7137C64.9296 26.6386 64.6005 25.7628 63.9426 25.0862C63.2845 24.4098 62.4645 24.0718 61.4823 24.0718C60.4999 24.0718 59.6752 24.4098 59.008 25.0862C58.3409 25.7628 58.0069 26.6386 58.0069 27.7137C58.0069 28.7886 58.3409 29.6643 59.008 30.3408Z" fill="#244E97"/>
<path d="M76.6047 35.2755C75.6222 35.2755 74.6492 35.1826 73.6854 34.9975C72.7217 34.8122 72.0359 34.6082 71.6281 34.3858C71.1278 34.1079 70.8775 33.6907 70.8775 33.1348V31.7726C70.8775 31.0868 71.1742 30.744 71.7671 30.744C71.8783 30.744 72.4622 30.906 73.5186 31.2304C74.575 31.5545 75.7334 31.717 76.9938 31.717C78.0872 31.717 78.634 31.3556 78.634 30.6325C78.634 30.2805 78.4859 30.0303 78.1892 29.882C77.8925 29.7336 77.309 29.5762 76.4377 29.4094L75.5481 29.2425C74.0284 28.9647 72.8654 28.5105 72.0591 27.8802C71.2528 27.25 70.8496 26.2864 70.8496 24.9891C70.8496 23.2652 71.4289 22.0283 72.5873 21.2777C73.7457 20.5268 75.2331 20.1515 77.0494 20.1515C79.0695 20.1515 80.6636 20.4297 81.8311 20.9855C82.3316 21.2266 82.5817 21.6436 82.5817 22.2368V23.599C82.5817 24.2477 82.2852 24.5719 81.692 24.5719C81.4883 24.5719 80.8629 24.4283 79.8157 24.141C78.7683 23.8537 77.8278 23.7102 76.9938 23.7102C75.9001 23.7102 75.3535 24.0251 75.3535 24.6554C75.3535 24.9703 75.4926 25.1976 75.7705 25.3367C76.0486 25.4755 76.6047 25.6191 77.4387 25.7675L78.217 25.9066C79.8108 26.1845 81.0295 26.6477 81.8729 27.2965C82.7163 27.9452 83.1378 29.0203 83.1378 30.5214C83.1378 32.1709 82.5355 33.3755 81.3306 34.1354C80.126 34.8953 78.5506 35.2755 76.6047 35.2755ZM93.5947 30.883C94.0394 30.883 94.262 31.1424 94.262 31.6613V33.3016C94.262 33.7463 94.2017 34.0706 94.0812 34.2745C93.9608 34.4782 93.6873 34.6637 93.2609 34.8305C92.6125 35.0901 91.7597 35.2199 90.7035 35.2199C87.0337 35.2199 85.1987 33.2275 85.1987 29.2425V24.4609H84.031C83.5121 24.4609 83.1369 24.3495 82.9052 24.1272C82.6735 23.9048 82.5576 23.5247 82.5576 22.9873V22.0977C82.5576 21.5601 82.6735 21.1804 82.9052 20.9579C83.1369 20.7355 83.5121 20.6244 84.031 20.6244H85.1987V18.4837C85.1987 17.9647 85.3099 17.5892 85.5325 17.3575C85.7546 17.126 86.1348 17.0101 86.6721 17.0101H88.1734C88.7109 17.0101 89.0909 17.126 89.3134 17.3575C89.5356 17.5892 89.6469 17.9647 89.6469 18.4837V20.6244H92.4828C93.0016 20.6244 93.3768 20.7355 93.6086 20.9579C93.8401 21.1804 93.9559 21.5601 93.9559 22.0977V22.9873C93.9559 23.5247 93.8401 23.9048 93.6086 24.1272C93.3768 24.3495 93.0016 24.4609 92.4828 24.4609H89.6469V28.7143C89.6469 29.6226 89.809 30.2573 90.1334 30.6187C90.4578 30.9801 90.9906 31.1609 91.732 31.1609C92.1026 31.1609 92.4778 31.1145 92.858 31.0219C93.2377 30.9292 93.4833 30.883 93.5947 30.883ZM108.944 20.3464C109.519 20.3464 109.806 20.6799 109.806 21.3471V34.08C109.806 34.7473 109.519 35.0808 108.944 35.0808C108.555 35.0808 108.12 34.9187 107.638 34.5941C107.156 34.27 106.73 33.8297 106.359 33.2737C105.859 33.8668 105.154 34.3626 104.246 34.7611C103.338 35.1596 102.356 35.3589 101.299 35.3589C99.1308 35.3589 97.3606 34.6408 95.9892 33.2043C94.6176 31.7677 93.9319 29.9376 93.9319 27.7137C93.9319 25.5265 94.6223 23.7055 96.0032 22.2506C97.3837 20.7958 99.1491 20.0682 101.299 20.0682C102.356 20.0682 103.338 20.2674 104.246 20.6658C105.154 21.0646 105.859 21.5601 106.359 22.1533C106.73 21.5972 107.156 21.157 107.638 20.8329C108.12 20.5085 108.555 20.3464 108.944 20.3464ZM99.4365 30.3408C100.104 31.0172 100.928 31.3556 101.911 31.3556C102.893 31.3556 103.713 31.0172 104.371 30.3408C105.029 29.6643 105.358 28.7886 105.358 27.7137C105.358 26.6386 105.029 25.7628 104.371 25.0862C103.713 24.4098 102.893 24.0718 101.911 24.0718C100.928 24.0718 100.104 24.4098 99.4365 25.0862C98.7694 25.7628 98.4357 26.6386 98.4357 27.7137C98.4357 28.7886 98.7694 29.6643 99.4365 30.3408ZM118.539 35.3589C116.482 35.3589 114.684 34.6497 113.146 33.2319C111.608 31.8144 110.838 29.9747 110.838 27.7137C110.838 25.434 111.612 23.5898 113.16 22.1812C114.707 20.7724 116.528 20.0682 118.623 20.0682C120.124 20.0682 121.366 20.2815 122.348 20.7076C122.756 20.8931 123.024 21.0922 123.154 21.3055C123.284 21.5184 123.349 21.801 123.349 22.1533V23.5713C123.349 24.2569 123.052 24.5997 122.459 24.5997C122.218 24.5997 121.76 24.5118 121.083 24.3357C120.407 24.1598 119.763 24.0718 119.151 24.0718C117.983 24.0718 117.057 24.4145 116.371 25.1003C115.685 25.786 115.342 26.6572 115.342 27.7137C115.342 28.7698 115.671 29.6412 116.329 30.3269C116.987 31.0127 117.9 31.3556 119.068 31.3556C119.865 31.3556 120.62 31.2721 121.333 31.1051C122.047 30.9384 122.459 30.8551 122.57 30.8551C123.089 30.8551 123.349 31.235 123.349 31.995V33.3016C123.349 33.6536 123.284 33.9365 123.154 34.1495C123.024 34.3626 122.756 34.5618 122.348 34.7473C121.403 35.1551 120.133 35.3589 118.539 35.3589ZM138.782 33.6353C139.023 33.9503 139.065 34.2237 138.907 34.4553C138.75 34.6869 138.476 34.8028 138.087 34.8028H136.002C135.075 34.8028 134.297 34.4044 133.667 33.6074L130.581 29.6873L129.107 31.1609V33.3293C129.107 33.8483 128.996 34.2237 128.774 34.4553C128.551 34.6869 128.171 34.8028 127.634 34.8028H126.132C125.595 34.8028 125.215 34.6869 124.993 34.4553C124.77 34.2237 124.659 33.8483 124.659 33.3293V19.2342C124.659 17.5848 125.034 16.2457 125.785 15.2171C126.536 14.1882 127.365 13.6738 128.273 13.6738C128.829 13.6738 129.107 14.0078 129.107 14.6748V26.1845L133.639 21.6807C134.065 21.2543 134.426 20.9717 134.723 20.8329C135.02 20.6938 135.483 20.6244 136.113 20.6244H138.143C138.495 20.6244 138.717 20.7541 138.81 21.0135C138.903 21.2729 138.819 21.5233 138.56 21.7642L133.556 26.7406L138.782 33.6353Z" fill="#57616B"/>
<path fill-rule="evenodd" clip-rule="evenodd" d="M51.1461 0.641602C51.1461 0.641602 53.1964 7.13102 57.973 8.84446C62.7495 10.5576 76.1696 10.9208 78.8691 12.4784C81.5688 14.0359 82.8926 18.3711 82.8926 18.3711C82.8926 18.3711 77.8308 17.5143 72.224 16.8653C64.794 16.0054 53.3692 15.4291 51.6915 6.09278C50.9125 1.75785 51.1461 0.641602 51.1461 0.641602Z" fill="url(#paint0_linear_40000763_1188)"/>
<defs>
<linearGradient id="paint0_linear_40000763_1188" x1="79.4349" y1="2.20258" x2="54.5732" y2="16.8085" gradientUnits="userSpaceOnUse">
<stop stop-color="#F8275B"/>
<stop offset="1" stop-color="#FA9600"/>
</linearGradient>
</defs>
</svg>
