<svg width="53" height="63" viewBox="0 0 53 63" fill="none" xmlns="http://www.w3.org/2000/svg">
<g clip-path="url(#clip0_40000763_1182)">
<path d="M29.8777 62.0073C34.7973 56.0085 39.4 49.7529 43.5876 43.2229C47.5151 37.0986 51.559 30.533 52.6857 23.2243C53.6906 16.7055 52.3515 9.67491 47.7179 4.74356C43.666 0.431379 37.1221 -1.17351 31.5411 0.8991C28.5658 2.004 25.8882 4.03977 24.4878 6.94444C22.4608 11.1489 23.0549 15.6926 23.8153 20.1258L30.0775 17.4911C27.857 12.4257 24.9299 7.13463 19.2964 5.33905C14.123 3.69011 8.18118 5.75944 4.53991 9.6245C0.241547 14.187 -0.673386 20.6587 0.424752 26.626C1.57752 32.8901 5.27295 38.2657 9.13789 43.1775C14.0708 49.4464 19.2268 55.55 24.2789 61.7236C25.4502 63.155 27.9084 62.937 29.1242 61.7236C30.5425 60.3083 30.2985 58.3229 29.1242 56.888C25.3067 52.223 21.4892 47.558 17.6717 42.893C14.3798 38.8703 10.9852 34.8595 8.7263 30.1387C6.84012 26.197 5.96937 21.1996 7.72408 17.0535C9.07292 13.8664 12.4572 11.3652 15.9674 11.6137C20.469 11.9324 22.5927 17.3658 24.1607 20.9426C24.8349 22.4807 27.0373 22.9567 28.4392 22.3417C30.0973 21.6143 30.7196 20.0374 30.4229 18.3078C29.9932 15.8022 29.4053 12.8415 30.4047 10.396C31.0279 8.87099 32.3534 7.8531 33.7486 7.35377C37.2925 6.08544 41.1563 7.13982 43.5665 10.3975C50.5058 19.7766 42.708 31.9463 37.5005 40.0367C33.6744 45.9812 29.5162 51.7043 25.0323 57.1716C23.8612 58.5995 23.6324 60.6101 25.0323 62.0072C26.2409 63.2134 28.6999 63.4434 29.8777 62.0073Z" fill="#FD881E"/>
</g>
<defs>
<clipPath id="clip0_40000763_1182">
<rect width="53" height="63" fill="white"/>
</clipPath>
</defs>
</svg>
