<svg width="105" height="103" viewBox="0 0 105 103" fill="none" xmlns="http://www.w3.org/2000/svg">
<g opacity="0.5">
<path d="M54.3287 46.3955C54.3061 47.288 53.5761 47.9998 52.6833 47.9998C51.7887 47.9998 51.0579 47.2851 51.0379 46.3906L50.0476 2.0447C50.0226 0.922932 50.9251 5.34058e-05 52.0471 5.34058e-05H53.4507C54.5751 5.34058e-05 55.4785 0.926605 55.4501 2.05061L54.3287 46.3955Z" fill="#FD881E"/>
<path d="M58.6072 50.1728C57.7147 50.1954 57.0029 50.9254 57.0029 51.8181C57.0029 52.7128 57.7176 53.4436 58.612 53.4636L102.958 54.4538C104.08 54.4789 105.003 53.5764 105.003 52.4543V51.0507C105.003 49.9264 104.076 49.0229 102.952 49.0514L58.6072 50.1728Z" fill="#FD881E"/>
<path d="M46.3958 53.8265C47.2882 53.8039 48 53.0739 48 52.1811C48 51.2865 47.2853 50.5557 46.3909 50.5357L2.04494 49.5454C0.923176 49.5204 0.000297546 50.4229 0.000297546 51.5449V52.9485C0.000297546 54.0729 0.926849 54.9763 2.05086 54.9479L46.3958 53.8265Z" fill="#FD881E"/>
<path d="M54.3287 56.604C54.3061 55.7115 53.5761 54.9998 52.6833 54.9998C51.7887 54.9998 51.0579 55.7144 51.0379 56.6089L50.0476 100.955C50.0226 102.077 50.9251 102.999 52.0471 102.999H53.4507C54.5751 102.999 55.4785 102.073 55.4501 100.949L54.3287 56.604Z" fill="#FD881E"/>
<path d="M55.8197 50.4608C55.4695 50.7917 54.92 50.785 54.5779 50.4458C54.2399 50.1106 54.2243 49.5691 54.5426 49.215L71.3667 30.4981C72.1002 29.6821 73.3673 29.6456 74.1464 30.4182C74.9168 31.1821 74.9018 32.4321 74.1132 33.1772L55.8197 50.4608Z" fill="#FD881E"/>
<path d="M55.2391 55.8195C54.9083 55.4693 54.9149 54.9198 55.2541 54.5777C55.5893 54.2396 56.1309 54.224 56.4849 54.5423L75.2019 71.3665C76.0179 72.1 76.0543 73.367 75.2818 74.1462C74.5179 74.9166 73.2679 74.9015 72.5228 74.1129L55.2391 55.8195Z" fill="#FD881E"/>
<path d="M49.8934 50.3171C50.2464 50.645 50.7958 50.6337 51.135 50.2916C51.4702 49.9535 51.4811 49.4118 51.1598 49.0605L34.1766 30.4877C33.4362 29.678 32.1689 29.6524 31.3964 30.4316C30.6325 31.202 30.6582 32.4518 31.4532 33.1902L49.8934 50.3171Z" fill="#FD881E"/>
<path d="M48.7389 53.236C49.0891 52.9051 49.6386 52.9117 49.9806 53.2509C50.3187 53.5861 50.3343 54.1277 50.016 54.4818L33.1919 73.1987C32.4584 74.0147 31.1913 74.0511 30.4122 73.2786C29.6417 72.5147 29.6568 71.2647 30.4454 70.5196L48.7389 53.236Z" fill="#FD881E"/>
<circle cx="78.6113" cy="26.6084" r="1.99999" transform="rotate(22.3155 78.6113 26.6084)" fill="#FD881E"/>
<circle cx="78.6113" cy="76.6096" r="1.99999" transform="rotate(22.3155 78.6113 76.6096)" fill="#FD881E"/>
<circle cx="26.6103" cy="76.6096" r="1.99999" transform="rotate(22.3155 26.6103 76.6096)" fill="#FD881E"/>
<circle cx="26.6103" cy="26.6084" r="1.99999" transform="rotate(22.3155 26.6103 26.6084)" fill="#FD881E"/>
</g>
</svg>
