<svg width="78" height="78" viewBox="0 0 78 78" fill="none" xmlns="http://www.w3.org/2000/svg">
<g opacity="0.1">
<path d="M39.9075 31.1926C39.9002 31.5408 39.6158 31.8193 39.2675 31.8193C38.9217 31.8193 38.6385 31.5448 38.6276 31.1993L37.6951 1.46211C37.67 0.662174 38.3117 8.01086e-05 39.112 8.01086e-05C39.9065 8.01086e-05 40.5459 0.652967 40.5293 1.44731L39.9075 31.1926Z" fill="white"/>
<path d="M46.8094 39.5088C46.4611 39.5015 46.1826 39.2171 46.1826 38.8688C46.1826 38.5231 46.4571 38.2398 46.8027 38.229L76.5399 37.2964C77.3398 37.2714 78.0019 37.913 78.0019 38.7133C78.0019 39.5079 77.349 40.1472 76.5547 40.1306L46.8094 39.5088Z" fill="white"/>
<path d="M31.1926 39.5088C31.5408 39.5015 31.8193 39.2171 31.8193 38.8688C31.8193 38.5231 31.5448 38.2398 31.1993 38.229L1.4621 37.2964C0.662163 37.2714 6.67572e-05 37.913 6.67572e-05 38.7133C6.67572e-05 39.5079 0.652954 40.1472 1.4473 40.1306L31.1926 39.5088Z" fill="white"/>
<path d="M38.2937 46.0259C38.301 45.6777 38.5854 45.3992 38.9337 45.3992C39.2794 45.3992 39.5627 45.6737 39.5735 46.0192L40.5061 75.7564C40.5311 76.5563 39.8895 77.2184 39.0891 77.2184C38.2946 77.2184 37.6553 76.5655 37.6719 75.7712L38.2937 46.0259Z" fill="white"/>
<ellipse cx="39.0038" cy="38.6083" rx="4.8505" ry="4.8505" fill="white"/>
<path d="M44.8679 33.9725C44.6175 34.2147 44.2195 34.2122 43.9721 33.967C43.7266 33.7235 43.7187 33.3292 43.9543 33.0761L64.2296 11.3027C64.775 10.717 65.6968 10.6986 66.2652 11.2621C66.8294 11.8216 66.8237 12.7354 66.2526 13.2877L44.8679 33.9725Z" fill="white"/>
<path d="M43.913 44.7456C43.6708 44.4952 43.6733 44.0971 43.9185 43.8498C44.162 43.6043 44.5563 43.5964 44.8094 43.832L66.5828 64.1073C67.1685 64.6527 67.1869 65.5745 66.6234 66.1429C66.0639 66.7071 65.1501 66.7014 64.5978 66.1303L43.913 44.7456Z" fill="white"/>
<path d="M32.8256 33.7487C33.078 33.9887 33.476 33.9829 33.7213 33.7355C33.9647 33.49 33.9692 33.0956 33.7314 32.8446L13.2712 11.2449C12.7208 10.6639 11.7989 10.6534 11.2354 11.2217C10.6759 11.7859 10.6894 12.6996 11.2652 13.2471L32.8256 33.7487Z" fill="white"/>
<path d="M33.2806 43.3825C33.5309 43.1403 33.929 43.1428 34.1763 43.388C34.4218 43.6314 34.4297 44.0258 34.1941 44.2788L13.9188 66.0522C13.3734 66.638 12.4516 66.6563 11.8833 66.0928C11.3191 65.5334 11.3247 64.6196 11.8958 64.0672L33.2806 43.3825Z" fill="white"/>
<path d="M42.3761 32.5287C42.2825 32.7417 42.0362 32.8412 41.8209 32.7529C41.6076 32.6653 41.5018 32.4246 41.5815 32.2082L47.4109 16.3872C47.5952 15.8869 48.158 15.6395 48.6512 15.842C49.1403 16.0427 49.3681 16.6069 49.1555 17.0909L42.3761 32.5287Z" fill="white"/>
<path d="M45.2184 42.6942C45.0054 42.6007 44.9059 42.3543 44.9942 42.1391C45.0818 41.9257 45.3225 41.8199 45.5389 41.8996L61.3599 47.729C61.8602 47.9133 62.1075 48.4761 61.9051 48.9693C61.7043 49.4584 61.1402 49.6862 60.6561 49.4736L45.2184 42.6942Z" fill="white"/>
<path d="M31.1537 36.9196C31.371 37.0027 31.6149 36.8972 31.7032 36.682C31.7908 36.4687 31.6938 36.2243 31.4838 36.129L16.1295 29.1626C15.644 28.9423 15.0726 29.169 14.8701 29.6622C14.6694 30.1513 14.9108 30.7097 15.4046 30.8985L31.1537 36.9196Z" fill="white"/>
<path d="M35.0243 45.0921C35.1178 44.8791 35.3642 44.7797 35.5794 44.868C35.7928 44.9556 35.8986 45.1962 35.8189 45.4126L29.9895 61.2336C29.8052 61.7339 29.2424 61.9813 28.7492 61.7789C28.2601 61.5781 28.0323 61.014 28.2449 60.5299L35.0243 45.0921Z" fill="white"/>
<path d="M46.0747 36.8294C45.8583 36.9148 45.6133 36.8119 45.5227 36.5977C45.4328 36.3853 45.5272 36.1399 45.7361 36.0424L61.015 28.912C61.4981 28.6865 62.0719 28.907 62.2796 29.3981C62.4856 29.885 62.2502 30.446 61.7584 30.6401L46.0747 36.8294Z" fill="white"/>
<path d="M40.5415 46.2063C40.4561 45.9899 40.5589 45.7449 40.7732 45.6543C40.9856 45.5644 41.231 45.6588 41.3285 45.8677L48.4589 61.1466C48.6844 61.6297 48.4638 62.2035 47.9728 62.4112C47.4858 62.6172 46.9249 62.3818 46.7308 61.89L40.5415 46.2063Z" fill="white"/>
<path d="M34.6219 32.2107C34.7177 32.4227 34.9652 32.5196 35.1794 32.4289C35.3918 32.3391 35.495 32.0973 35.413 31.8817L29.4146 16.124C29.2249 15.6257 28.6596 15.3844 28.1685 15.5921C27.6816 15.7981 27.4599 16.3646 27.6776 16.8464L34.6219 32.2107Z" fill="white"/>
<path d="M31.6069 40.7307C31.8233 40.6453 32.0683 40.7481 32.159 40.9624C32.2488 41.1748 32.1545 41.4202 31.9455 41.5177L16.6666 48.6481C16.1835 48.8736 15.6097 48.653 15.402 48.162C15.196 47.6751 15.4315 47.1141 15.9232 46.92L31.6069 40.7307Z" fill="white"/>
</g>
</svg>
