<svg width="60" height="59" viewBox="0 0 60 59" fill="none" xmlns="http://www.w3.org/2000/svg">
<g opacity="0.1">
<path d="M31.0444 26.5117C31.0315 27.0217 30.6144 27.4285 30.1042 27.4285C29.593 27.4285 29.1754 27.0201 29.1639 26.509L28.607 1.56861C28.5878 0.707954 29.2802 -0.000106812 30.1411 -0.000106812C31.0037 -0.000106812 31.6969 0.710772 31.6751 1.57314L31.0444 26.5117Z" fill="white"/>
<path d="M33.488 28.6705C32.978 28.6834 32.5713 29.1005 32.5713 29.6106C32.5713 30.1219 32.9797 30.5395 33.4908 30.5509L58.4311 31.1078C59.2918 31.127 59.9999 30.4346 59.9999 29.5738C59.9999 28.7111 59.289 28.018 58.4266 28.0398L33.488 28.6705Z" fill="white"/>
<path d="M26.512 30.758C27.022 30.7451 27.4287 30.328 27.4287 29.8178C27.4287 29.3066 27.0203 28.889 26.5092 28.8776L1.56885 28.3206C0.708199 28.3014 0.000137329 28.9938 0.000137329 29.8547C0.000137329 30.7174 0.711016 31.4105 1.57339 31.3887L26.512 30.758Z" fill="white"/>
<path d="M31.0444 32.3452C31.0315 31.8352 30.6144 31.4285 30.1042 31.4285C29.593 31.4285 29.1754 31.8369 29.1639 32.348L28.607 57.2883C28.5878 58.149 29.2802 58.857 30.1411 58.857C31.0037 58.857 31.6969 58.1462 31.6751 57.2838L31.0444 32.3452Z" fill="white"/>
<path d="M31.8971 28.8353C31.697 29.0243 31.383 29.0205 31.1875 28.8267C30.9943 28.6352 30.9854 28.3257 31.1673 28.1234L40.7812 17.4279C41.2003 16.9616 41.9243 16.9408 42.3696 17.3823C42.8098 17.8188 42.8012 18.5331 42.3506 18.9588L31.8971 28.8353Z" fill="white"/>
<path d="M31.5634 31.8969C31.3744 31.6968 31.3781 31.3828 31.572 31.1873C31.7635 30.9941 32.073 30.9852 32.2753 31.1671L42.9708 40.7809C43.4371 41.2001 43.4579 41.9241 43.0164 42.3693C42.5799 42.8096 41.8656 42.801 41.4398 42.3503L31.5634 31.8969Z" fill="white"/>
<path d="M28.5099 28.7527C28.7116 28.94 29.0256 28.9336 29.2194 28.7381C29.411 28.5449 29.4172 28.2354 29.2336 28.0346L19.5289 17.4215C19.1058 16.9588 18.3816 16.9442 17.9402 17.3894C17.5037 17.8297 17.5184 18.5439 17.9726 18.9658L28.5099 28.7527Z" fill="white"/>
<path d="M27.849 30.4211C28.0491 30.232 28.3631 30.2358 28.5586 30.4296C28.7518 30.6212 28.7607 30.9306 28.5788 31.133L18.9649 41.8284C18.5458 42.2947 17.8217 42.3155 17.3765 41.8741C16.9363 41.4376 16.9449 40.7233 17.3955 40.2975L27.849 30.4211Z" fill="white"/>
<circle cx="44.9202" cy="15.2053" r="1.14286" transform="rotate(22.3155 44.9202 15.2053)" fill="white"/>
<circle cx="44.9202" cy="43.7771" r="1.14286" transform="rotate(22.3155 44.9202 43.7771)" fill="white"/>
<circle cx="15.2053" cy="43.7771" r="1.14286" transform="rotate(22.3155 15.2053 43.7771)" fill="white"/>
<circle cx="15.2053" cy="15.2053" r="1.14286" transform="rotate(22.3155 15.2053 15.2053)" fill="white"/>
</g>
</svg>
