<svg width="60" height="59" viewBox="0 0 60 59" fill="none" xmlns="http://www.w3.org/2000/svg">
<g opacity="0.1">
<path d="M31.0444 26.5117C31.0315 27.0217 30.6144 27.4284 30.1042 27.4284C29.593 27.4284 29.1754 27.02 29.1639 26.5089L28.607 1.56855C28.5878 0.707893 29.2802 -0.000167847 30.1411 -0.000167847C31.0037 -0.000167847 31.6969 0.710711 31.6751 1.57308L31.0444 26.5117Z" fill="#19448C"/>
<path d="M33.489 28.6705C32.979 28.6834 32.5723 29.1005 32.5723 29.6106C32.5723 30.1219 32.9807 30.5395 33.4918 30.5509L58.4321 31.1078C59.2928 31.127 60.0008 30.4346 60.0008 29.5738C60.0008 28.7111 59.29 28.018 58.4276 28.0398L33.489 28.6705Z" fill="#19448C"/>
<path d="M26.511 30.758C27.021 30.7451 27.4277 30.3279 27.4277 29.8178C27.4277 29.3065 27.0193 28.8889 26.5082 28.8775L1.56787 28.3206C0.707222 28.3014 -0.000839233 28.9938 -0.000839233 29.8547C-0.000839233 30.7173 0.710039 31.4104 1.57241 31.3886L26.511 30.758Z" fill="#19448C"/>
<path d="M31.0444 32.3451C31.0315 31.8351 30.6144 31.4284 30.1042 31.4284C29.593 31.4284 29.1754 31.8368 29.1639 32.3479L28.607 57.2883C28.5878 58.1489 29.2802 58.857 30.1411 58.857C31.0037 58.857 31.6969 58.1461 31.6751 57.2837L31.0444 32.3451Z" fill="#19448C"/>
<path d="M31.8961 28.8353C31.696 29.0244 31.382 29.0206 31.1866 28.8268C30.9934 28.6352 30.9845 28.3258 31.1663 28.1234L40.7802 17.428C41.1994 16.9617 41.9234 16.9409 42.3686 17.3823C42.8089 17.8188 42.8002 18.5331 42.3496 18.9589L31.8961 28.8353Z" fill="#19448C"/>
<path d="M31.5644 31.8968C31.3753 31.6967 31.3791 31.3827 31.5729 31.1872C31.7645 30.994 32.0739 30.9851 32.2763 31.167L42.9717 40.7809C43.438 41.2 43.4588 41.924 43.0174 42.3693C42.5809 42.8095 41.8666 42.8009 41.4408 42.3503L31.5644 31.8968Z" fill="#19448C"/>
<path d="M28.5099 28.7526C28.7116 28.94 29.0256 28.9335 29.2194 28.738C29.411 28.5448 29.4172 28.2353 29.2336 28.0345L19.5289 17.4215C19.1058 16.9588 18.3816 16.9441 17.9402 17.3894C17.5037 17.8296 17.5184 18.5438 17.9726 18.9657L28.5099 28.7526Z" fill="#19448C"/>
<path d="M27.85 30.4211C28.0501 30.2321 28.3641 30.2359 28.5595 30.4297C28.7527 30.6212 28.7616 30.9307 28.5798 31.133L18.9659 41.8285C18.5467 42.2948 17.8227 42.3156 17.3775 41.8741C16.9372 41.4376 16.9458 40.7233 17.3965 40.2976L27.85 30.4211Z" fill="#19448C"/>
<circle cx="44.9202" cy="15.2054" r="1.14286" transform="rotate(22.3155 44.9202 15.2054)" fill="#19448C"/>
<circle cx="44.9202" cy="43.777" r="1.14286" transform="rotate(22.3155 44.9202 43.777)" fill="#19448C"/>
<circle cx="15.2053" cy="43.777" r="1.14286" transform="rotate(22.3155 15.2053 43.777)" fill="#19448C"/>
<circle cx="15.2053" cy="15.2054" r="1.14286" transform="rotate(22.3155 15.2053 15.2054)" fill="#19448C"/>
</g>
</svg>
