<svg width="110" height="109" viewBox="0 0 110 109" fill="none" xmlns="http://www.w3.org/2000/svg">
<g opacity="0.5">
<path d="M56.2688 43.9877C56.2585 44.4788 55.8575 44.8716 55.3662 44.8716C54.8787 44.8716 54.4792 44.4844 54.4639 43.9971L53.1488 2.05894C53.1134 0.930798 54.0183 -0.00295639 55.147 -0.00295639C56.2675 -0.00295639 57.1692 0.917809 57.1458 2.03807L56.2688 43.9877Z" fill="#FD881E"/>
<path d="M66.006 55.7205C65.5148 55.7102 65.1221 55.3091 65.1221 54.8179C65.1221 54.3303 65.5092 53.9308 65.9966 53.9156L107.935 52.6004C109.063 52.565 109.997 53.47 109.997 54.5987C109.997 55.7192 109.076 56.6209 107.956 56.5975L66.006 55.7205Z" fill="#FD881E"/>
<path d="M43.9872 55.7197C44.4783 55.7095 44.8711 55.3084 44.8711 54.8172C44.8711 54.3296 44.4839 53.9301 43.9966 53.9148L2.05844 52.5997C0.93029 52.5643 -0.00346375 53.4692 -0.00346375 54.5979C-0.00346375 55.7184 0.917301 56.6202 2.03756 56.5967L43.9872 55.7197Z" fill="#FD881E"/>
<path d="M53.9988 64.9108C54.009 64.4196 54.4101 64.0269 54.9014 64.0269C55.3889 64.0269 55.7884 64.414 55.8037 64.9013L57.1188 106.839C57.1542 107.968 56.2493 108.901 55.1206 108.901C54.0001 108.901 53.0984 107.981 53.1218 106.86L53.9988 64.9108Z" fill="#FD881E"/>
<path d="M63.2632 47.9157C62.9101 48.2572 62.3488 48.2538 61.9999 47.9079C61.6537 47.5646 61.6426 47.0084 61.9749 46.6516L90.569 15.9447C91.3382 15.1186 92.6382 15.0927 93.4397 15.8874C94.2354 16.6763 94.2275 17.9651 93.4221 18.7441L63.2632 47.9157Z" fill="#FD881E"/>
<path d="M61.9168 63.1006C61.5753 62.7475 61.5787 62.1862 61.9246 61.8373C62.2679 61.4911 62.8241 61.48 63.1809 61.8123L93.8879 90.4064C94.7139 91.1756 94.7398 92.4756 93.9451 93.2771C93.1562 94.0728 91.8674 94.0649 91.0884 93.2595L61.9168 63.1006Z" fill="#FD881E"/>
<path d="M46.2864 47.602C46.6424 47.9405 47.2037 47.9323 47.5496 47.5834C47.8929 47.2372 47.8993 46.6809 47.564 46.327L18.709 15.865C17.9327 15.0456 16.6325 15.0308 15.8378 15.8323C15.0489 16.628 15.0679 17.9166 15.8799 18.6887L46.2864 47.602Z" fill="#FD881E"/>
<path d="M46.9204 61.1768C47.2735 60.8353 47.8348 60.8388 48.1837 61.1846C48.5299 61.5279 48.541 62.0841 48.2087 62.4409L19.6146 93.1479C18.8454 93.9739 17.5454 93.9998 16.7438 93.2051C15.9482 92.4162 15.9561 91.1275 16.7615 90.3484L46.9204 61.1768Z" fill="#FD881E"/>
<path d="M59.7621 45.8794C59.6302 46.1798 59.2827 46.3201 58.9792 46.1955C58.6783 46.072 58.5291 45.7326 58.6416 45.4274L66.8627 23.1151C67.1226 22.4095 67.9163 22.0607 68.6119 22.3462C69.3017 22.6293 69.6229 23.4249 69.3231 24.1076L59.7621 45.8794Z" fill="#FD881E"/>
<path d="M63.761 60.2086C63.4606 60.0767 63.3203 59.7293 63.4449 59.4257C63.5684 59.1249 63.9078 58.9756 64.213 59.0881L86.5253 67.3092C87.2308 67.5692 87.5797 68.3628 87.2942 69.0584C87.0111 69.7482 86.2155 70.0694 85.5328 69.7697L63.761 60.2086Z" fill="#FD881E"/>
<path d="M43.9345 52.0726C44.241 52.1897 44.5849 52.041 44.7095 51.7375C44.833 51.4366 44.6963 51.092 44.4001 50.9576L22.746 41.1328C22.0613 40.8222 21.2554 41.1419 20.9699 41.8375C20.6868 42.5272 21.0273 43.3148 21.7237 43.5811L43.9345 52.0726Z" fill="#FD881E"/>
<path d="M49.3775 63.5896C49.5095 63.2892 49.8569 63.1489 50.1604 63.2735C50.4613 63.397 50.6105 63.7364 50.4981 64.0416L42.277 86.3539C42.017 87.0594 41.2234 87.4083 40.5277 87.1228C39.838 86.8397 39.5167 86.0441 39.8165 85.3614L49.3775 63.5896Z" fill="#FD881E"/>
<path d="M64.975 51.9443C64.6698 52.0647 64.3243 51.9197 64.1964 51.6175C64.0697 51.318 64.2028 50.9719 64.4975 50.8343L86.0452 40.7784C86.7266 40.4604 87.5358 40.7714 87.8287 41.464C88.1192 42.1506 87.7871 42.9418 87.0936 43.2155L64.975 51.9443Z" fill="#FD881E"/>
<path d="M57.1656 65.1639C57.0452 64.8588 57.1902 64.5132 57.4924 64.3854C57.7919 64.2587 58.138 64.3917 58.2755 64.6865L68.3315 86.2341C68.6495 86.9155 68.3384 87.7247 67.6459 88.0177C66.9592 88.3082 66.1681 87.9761 65.8944 87.2826L57.1656 65.1639Z" fill="#FD881E"/>
<path d="M48.8213 45.4312C48.9565 45.7302 49.3054 45.8667 49.6076 45.7389C49.9071 45.6122 50.0527 45.2712 49.937 44.9672L41.4775 22.7442C41.21 22.0415 40.4127 21.7011 39.7202 21.9941C39.0335 22.2845 38.7208 23.0835 39.0278 23.763L48.8213 45.4312Z" fill="#FD881E"/>
<path d="M44.5719 57.4444C44.8771 57.324 45.2226 57.469 45.3504 57.7712C45.4771 58.0707 45.3441 58.4168 45.0494 58.5544L23.5017 68.6103C22.8203 68.9283 22.0111 68.6172 21.7182 67.9247C21.4277 67.238 21.7597 66.4469 22.4533 66.1732L44.5719 57.4444Z" fill="#FD881E"/>
</g>
</svg>
