<svg width="322" height="190" viewBox="0 0 322 190" fill="none" xmlns="http://www.w3.org/2000/svg">
<path opacity="0.5" d="M63.4298 42.728C63.9844 42.728 64.4111 42.984 64.7098 43.496C65.0511 44.008 65.2218 44.712 65.2218 45.608C65.2218 47.272 64.8164 48.5947 64.0058 49.576C59.7818 54.7387 55.2804 57.32 50.5018 57.32C46.3631 57.32 43.0564 55.72 40.5818 52.52C38.1071 49.32 36.8698 44.7333 36.8698 38.76C36.8698 37.3093 36.9338 35.8587 37.0618 34.408C34.2458 34.92 31.1738 35.304 27.8458 35.56C25.6271 35.7307 24.1124 35.8373 23.3018 35.88C22.4484 40.232 21.2538 45.5653 19.7178 51.88C18.8218 55.592 17.1151 57.448 14.5978 57.448C11.8671 57.448 10.5017 56.2107 10.5017 53.736C10.5017 53.1813 10.6084 52.4133 10.8218 51.432C12.2724 45.5867 13.4244 40.6373 14.2778 36.584L11.2058 36.712C9.79775 36.712 8.77375 36.4773 8.13375 36.008C7.49375 35.496 7.17375 34.6853 7.17375 33.576C7.17375 32.168 7.57908 31.144 8.38975 30.504C9.20042 29.8213 10.5444 29.4373 12.4218 29.352L15.8138 29.224C16.9231 23.208 17.4778 18.6213 17.4778 15.464C17.4778 13.4587 17.1791 12.0933 16.5818 11.368C15.9844 10.6427 15.1951 10.28 14.2138 10.28C11.2271 10.28 7.85642 12.776 4.10175 17.768C3.54708 18.4933 2.92842 18.856 2.24575 18.856C1.64842 18.856 1.13642 18.5787 0.70975 18.024C0.283083 17.4693 0.06975 16.7653 0.06975 15.912C0.06975 14.5893 0.603083 13.1813 1.66975 11.688C3.54708 9.08533 5.91508 6.952 8.77375 5.288C11.6324 3.58133 14.5338 2.728 17.4778 2.728C20.2511 2.728 22.3844 3.688 23.8778 5.608C25.4138 7.48533 26.1818 10.4293 26.1818 14.44C26.1818 17.9813 25.6698 22.7813 24.6458 28.84L30.9178 28.52C33.6058 28.392 35.9098 28.1787 37.8298 27.88C38.5978 23.1867 39.7711 18.792 41.3498 14.696C42.9284 10.6 44.8911 7.272 47.2378 4.712C49.5844 2.152 52.2084 0.871998 55.1098 0.871998C57.2431 0.871998 58.9284 1.72533 60.1658 3.432C61.4031 5.096 62.0218 7.29333 62.0218 10.024C62.0218 20.6053 56.6244 27.944 45.8298 32.04C45.7018 33.7467 45.6378 35.5173 45.6378 37.352C45.6378 41.832 46.1924 45.0107 47.3018 46.888C48.4111 48.7653 49.9684 49.704 51.9738 49.704C53.7231 49.704 55.3231 49.256 56.7738 48.36C58.2244 47.4213 59.8671 45.8427 61.7018 43.624C62.2138 43.0267 62.7898 42.728 63.4298 42.728ZM54.7898 6.44C53.8511 6.44 52.8484 7.29333 51.7818 9C50.7578 10.7067 49.7764 13.032 48.8378 15.976C47.8991 18.92 47.1524 22.1413 46.5978 25.64C50.0111 24.232 52.5284 22.2267 54.1498 19.624C55.7711 17.0213 56.5818 13.672 56.5818 9.576C56.5818 8.59466 56.4111 7.82666 56.0698 7.272C55.7284 6.71733 55.3018 6.44 54.7898 6.44ZM67.9128 57.32C65.2674 57.32 63.1554 56.36 61.5768 54.44C59.9981 52.52 59.2088 50.0027 59.2088 46.888C59.2088 43.4747 59.9981 40.2533 61.5768 37.224C63.1554 34.152 65.2461 31.6987 67.8488 29.864C70.4941 27.9867 73.2888 27.048 76.2328 27.048C77.1714 27.048 77.7901 27.24 78.0888 27.624C78.4301 27.9653 78.7074 28.6053 78.9208 29.544C79.8168 29.3733 80.7554 29.288 81.7368 29.288C83.8274 29.288 84.8728 30.0347 84.8728 31.528C84.8728 32.424 84.5528 34.5573 83.9128 37.928C82.9314 42.8347 82.4408 46.248 82.4408 48.168C82.4408 48.808 82.5901 49.32 82.8888 49.704C83.2301 50.088 83.6568 50.28 84.1688 50.28C84.9794 50.28 85.9608 49.768 87.1128 48.744C88.2648 47.6773 89.8221 45.9707 91.7848 43.624C92.2968 43.0267 92.8728 42.728 93.5128 42.728C94.0674 42.728 94.4941 42.984 94.7928 43.496C95.1341 44.008 95.3048 44.712 95.3048 45.608C95.3048 47.3147 94.8994 48.6373 94.0888 49.576C92.3394 51.752 90.4834 53.5867 88.5208 55.08C86.5581 56.5733 84.6594 57.32 82.8248 57.32C81.4168 57.32 80.1154 56.8507 78.9208 55.912C77.7688 54.9307 76.8941 53.608 76.2968 51.944C74.0781 55.528 71.2834 57.32 67.9128 57.32ZM70.2168 50.856C71.1554 50.856 72.0514 50.3013 72.9048 49.192C73.7581 48.0827 74.3768 46.6107 74.7608 44.776L77.1288 33C75.3368 33.0427 73.6728 33.7253 72.1368 35.048C70.6434 36.328 69.4488 38.0347 68.5528 40.168C67.6568 42.3013 67.2088 44.5627 67.2088 46.952C67.2088 48.2747 67.4648 49.256 67.9768 49.896C68.5314 50.536 69.2781 50.856 70.2168 50.856ZM124.279 42.728C124.834 42.728 125.261 42.984 125.559 43.496C125.901 44.008 126.071 44.712 126.071 45.608C126.071 47.3147 125.666 48.6373 124.855 49.576C123.021 51.8373 121.037 53.6933 118.903 55.144C116.813 56.5947 114.423 57.32 111.735 57.32C109.474 57.32 107.639 56.5093 106.231 54.888C103.799 56.4667 101.261 57.2773 98.6153 57.32C98.0606 65.5547 96.8019 72.424 94.8393 77.928C92.8766 83.4747 89.9966 86.248 86.1992 86.248C83.8952 86.248 82.1886 85.416 81.0792 83.752C79.9699 82.088 79.4152 79.784 79.4152 76.84C79.4152 72.6587 80.3752 67.7733 82.2952 62.184C84.2152 56.6373 87.1806 50.5147 91.1913 43.816C91.1913 37.5867 91.1486 33.256 91.0633 30.824C91.0206 29.5867 91.5113 28.6053 92.5353 27.88C93.5593 27.1547 94.8393 26.792 96.3753 26.792C97.2713 26.792 97.9113 26.984 98.2953 27.368C98.7219 27.7093 98.9566 28.4133 98.9993 29.48C98.9993 30.5467 99.0206 31.336 99.0633 31.848C100.429 30.1413 101.773 28.9253 103.095 28.2C104.418 27.432 105.826 27.048 107.319 27.048C109.709 27.048 111.65 28.008 113.143 29.928C114.679 31.848 115.447 34.3653 115.447 37.48C115.447 39.7413 115.085 41.9387 114.359 44.072C113.634 46.2053 112.631 48.1467 111.351 49.896C112.247 50.152 112.994 50.28 113.591 50.28C114.999 50.28 116.343 49.768 117.623 48.744C118.903 47.72 120.546 46.0133 122.551 43.624C123.063 43.0267 123.639 42.728 124.279 42.728ZM98.9353 51.176C100.471 50.8347 101.879 50.0027 103.159 48.68C104.482 47.3147 105.527 45.6507 106.295 43.688C107.063 41.6827 107.447 39.592 107.447 37.416C107.447 36.136 107.191 35.176 106.679 34.536C106.167 33.8533 105.485 33.512 104.631 33.512C103.095 33.512 101.239 35.1333 99.0633 38.376C99.0206 40.2533 98.9993 43.0053 98.9993 46.632C98.9993 48.5947 98.9779 50.1093 98.9353 51.176ZM86.7112 79.976C87.8633 79.976 88.8233 77.4587 89.5913 72.424C90.3593 67.432 90.8499 61.2027 91.0633 53.736C89.2286 58.0027 87.7779 62.0773 86.7112 65.96C85.6446 69.8427 85.1112 73.1067 85.1112 75.752C85.1112 77.1173 85.2819 78.1627 85.6232 78.888C85.9219 79.6133 86.2846 79.976 86.7112 79.976ZM155.092 42.728C155.646 42.728 156.073 42.984 156.372 43.496C156.713 44.008 156.884 44.712 156.884 45.608C156.884 47.3147 156.478 48.6373 155.668 49.576C153.833 51.8373 151.849 53.6933 149.716 55.144C147.625 56.5947 145.236 57.32 142.548 57.32C140.286 57.32 138.452 56.5093 137.044 54.888C134.612 56.4667 132.073 57.2773 129.428 57.32C128.873 65.5547 127.614 72.424 125.652 77.928C123.689 83.4747 120.809 86.248 117.012 86.248C114.708 86.248 113.001 85.416 111.892 83.752C110.782 82.088 110.228 79.784 110.228 76.84C110.228 72.6587 111.188 67.7733 113.108 62.184C115.028 56.6373 117.993 50.5147 122.004 43.816C122.004 37.5867 121.961 33.256 121.876 30.824C121.833 29.5867 122.324 28.6053 123.348 27.88C124.372 27.1547 125.652 26.792 127.188 26.792C128.084 26.792 128.724 26.984 129.108 27.368C129.534 27.7093 129.769 28.4133 129.812 29.48C129.812 30.5467 129.833 31.336 129.876 31.848C131.241 30.1413 132.585 28.9253 133.908 28.2C135.23 27.432 136.638 27.048 138.132 27.048C140.521 27.048 142.462 28.008 143.956 29.928C145.492 31.848 146.26 34.3653 146.26 37.48C146.26 39.7413 145.897 41.9387 145.172 44.072C144.446 46.2053 143.444 48.1467 142.164 49.896C143.06 50.152 143.806 50.28 144.404 50.28C145.812 50.28 147.156 49.768 148.436 48.744C149.716 47.72 151.358 46.0133 153.364 43.624C153.876 43.0267 154.452 42.728 155.092 42.728ZM129.748 51.176C131.284 50.8347 132.692 50.0027 133.972 48.68C135.294 47.3147 136.34 45.6507 137.108 43.688C137.876 41.6827 138.26 39.592 138.26 37.416C138.26 36.136 138.004 35.176 137.492 34.536C136.98 33.8533 136.297 33.512 135.444 33.512C133.908 33.512 132.052 35.1333 129.876 38.376C129.833 40.2533 129.812 43.0053 129.812 46.632C129.812 48.5947 129.79 50.1093 129.748 51.176ZM117.524 79.976C118.676 79.976 119.636 77.4587 120.404 72.424C121.172 67.432 121.662 61.2027 121.876 53.736C120.041 58.0027 118.59 62.0773 117.524 65.96C116.457 69.8427 115.924 73.1067 115.924 75.752C115.924 77.1173 116.094 78.1627 116.436 78.888C116.734 79.6133 117.097 79.976 117.524 79.976ZM174.128 27.176C175.11 27.176 175.792 27.304 176.176 27.56C176.56 27.816 176.752 28.2427 176.752 28.84C176.752 29.864 176.198 33.512 175.088 39.784C174.107 45.8 173.531 49.3627 173.36 50.472C171.782 61.4373 169.606 70.12 166.832 76.52C164.059 82.92 160.368 86.12 155.76 86.12C153.584 86.12 151.814 85.4373 150.448 84.072C149.083 82.7493 148.4 81 148.4 78.824C148.4 76.8187 148.848 74.7707 149.744 72.68C150.683 70.5893 152.39 68.1787 154.864 65.448C157.382 62.76 160.923 59.6667 165.488 56.168L165.68 54.696C165.979 53.1173 166.32 50.856 166.704 47.912C165.851 50.984 164.656 53.3307 163.12 54.952C161.584 56.5307 159.963 57.32 158.256 57.32C156.336 57.32 154.758 56.4453 153.52 54.696C152.326 52.904 151.728 50.6853 151.728 48.04C151.728 44.84 151.942 41.9173 152.368 39.272C152.795 36.584 153.499 33.7467 154.48 30.76C154.907 29.48 155.504 28.5627 156.272 28.008C157.04 27.4533 158.256 27.176 159.92 27.176C160.859 27.176 161.499 27.3253 161.84 27.624C162.224 27.9227 162.416 28.3707 162.416 28.968C162.416 29.3093 162.182 30.4613 161.712 32.424C161.286 34.0027 160.944 35.432 160.688 36.712C160.347 38.4613 160.048 40.1467 159.792 41.768C159.536 43.3467 159.408 44.648 159.408 45.672C159.408 47.2933 159.856 48.104 160.752 48.104C161.392 48.104 162.182 47.464 163.12 46.184C164.102 44.904 165.126 42.9627 166.192 40.36C167.302 37.7573 168.368 34.5573 169.392 30.76C169.734 29.48 170.246 28.5627 170.928 28.008C171.654 27.4533 172.72 27.176 174.128 27.176ZM156.464 79.912C157.531 79.912 158.726 78.6747 160.048 76.2C161.371 73.7253 162.694 69.608 164.016 63.848C160.731 66.6213 158.342 69.1387 156.848 71.4C155.398 73.704 154.672 75.7093 154.672 77.416C154.672 78.1413 154.8 78.7387 155.056 79.208C155.355 79.6773 155.824 79.912 156.464 79.912ZM209.192 57.32C207.613 57.32 206.482 56.9787 205.8 56.296C205.117 55.5707 204.776 54.2267 204.776 52.264C204.776 50.9413 204.904 49.3413 205.16 47.464C205.416 45.5867 205.864 42.7493 206.504 38.952C206.589 38.44 206.93 36.3707 207.528 32.744C208.125 29.0747 208.658 25.2347 209.128 21.224C209.554 17.8107 209.768 15.2507 209.768 13.544C209.768 11.624 209.064 10.664 207.656 10.664C206.589 10.664 205.245 11.24 203.624 12.392C202.045 13.5013 200.338 15.2933 198.504 17.768C197.906 18.5787 197.245 18.984 196.52 18.984C195.922 18.984 195.389 18.7067 194.92 18.152C194.493 17.5547 194.28 16.8933 194.28 16.168C194.28 15.4427 194.408 14.76 194.664 14.12C194.92 13.4373 195.389 12.6267 196.072 11.688C198.162 8.82933 200.488 6.632 203.048 5.096C205.608 3.51733 208.296 2.728 211.112 2.728C213.458 2.728 215.208 3.45333 216.36 4.904C217.554 6.35467 218.152 8.46666 218.152 11.24C218.152 13.7147 217.81 17.2987 217.128 21.992C219.261 15.6773 221.97 10.8987 225.256 7.656C228.541 4.37066 232.402 2.728 236.84 2.728C240.338 2.728 242.962 3.73066 244.712 5.736C246.504 7.69866 247.4 10.344 247.4 13.672C247.4 15.5493 247.122 17.832 246.568 20.52L242.664 38.824C242.237 40.9573 242.024 42.792 242.024 44.328C242.024 46.12 242.429 47.464 243.24 48.36C244.093 49.256 245.266 49.704 246.76 49.704C248.168 49.704 249.533 49.2347 250.856 48.296C252.221 47.3573 253.821 45.8 255.656 43.624C256.168 43.0267 256.744 42.728 257.384 42.728C257.938 42.728 258.365 42.984 258.664 43.496C259.005 44.008 259.176 44.712 259.176 45.608C259.176 47.272 258.77 48.5947 257.96 49.576C255.741 52.264 253.544 54.2267 251.368 55.464C249.192 56.7013 246.909 57.32 244.52 57.32C240.893 57.32 238.056 56.2533 236.008 54.12C233.96 51.944 232.936 49.0427 232.936 45.416C232.936 44.008 233.042 42.472 233.256 40.808C233.512 39.144 233.917 37.032 234.472 34.472L237.032 22.76C237.117 22.376 237.266 21.6933 237.48 20.712C237.693 19.7307 237.864 18.8133 237.992 17.96C238.12 17.064 238.184 16.1893 238.184 15.336C238.184 13.9707 237.8 12.8827 237.032 12.072C236.264 11.2613 235.176 10.856 233.768 10.856C231.208 10.856 228.648 12.2213 226.088 14.952C223.528 17.6827 221.16 22.0987 218.984 28.2C216.808 34.2587 215.101 42.024 213.864 51.496C213.565 53.672 213.117 55.1867 212.52 56.04C211.965 56.8933 210.856 57.32 209.192 57.32ZM282.522 42.728C283.077 42.728 283.504 42.984 283.802 43.496C284.144 44.008 284.314 44.712 284.314 45.608C284.314 47.3147 283.909 48.6373 283.098 49.576C281.52 51.496 279.28 53.2667 276.378 54.888C273.52 56.5093 270.448 57.32 267.162 57.32C262.682 57.32 259.205 56.104 256.73 53.672C254.256 51.24 253.018 47.912 253.018 43.688C253.018 40.744 253.637 38.0133 254.874 35.496C256.112 32.936 257.818 30.9093 259.994 29.416C262.213 27.9227 264.709 27.176 267.482 27.176C269.957 27.176 271.941 27.9227 273.434 29.416C274.928 30.8667 275.674 32.8507 275.674 35.368C275.674 38.312 274.608 40.8507 272.474 42.984C270.384 45.0747 266.821 46.7387 261.786 47.976C262.853 49.9387 264.88 50.92 267.866 50.92C269.786 50.92 271.962 50.2587 274.394 48.936C276.869 47.5707 279.002 45.8 280.794 43.624C281.306 43.0267 281.882 42.728 282.522 42.728ZM266.394 33.448C264.816 33.448 263.472 34.3653 262.362 36.2C261.296 38.0347 260.762 40.2533 260.762 42.856V42.984C263.28 42.3867 265.264 41.4907 266.714 40.296C268.165 39.1013 268.89 37.7147 268.89 36.136C268.89 35.3253 268.656 34.6853 268.186 34.216C267.76 33.704 267.162 33.448 266.394 33.448ZM317.752 27.112C320.098 27.112 321.272 27.8587 321.272 29.352C321.272 29.864 321.101 30.568 320.76 31.464C317.304 39.528 314.04 46.0347 310.968 50.984C309.432 53.416 308.045 55.08 306.808 55.976C305.57 56.872 304.162 57.32 302.584 57.32C300.877 57.32 299.597 56.6587 298.744 55.336C297.933 54.0133 297.421 51.8373 297.208 48.808C297.122 47.6987 297.037 46.0347 296.952 43.816C295.629 47.4853 294.413 50.3013 293.304 52.264C292.237 54.184 291.17 55.5067 290.104 56.232C289.08 56.9573 287.842 57.32 286.392 57.32C284.642 57.32 283.256 56.6373 282.232 55.272C281.25 53.9067 280.632 51.752 280.376 48.808C279.864 42.8347 279.608 37.608 279.608 33.128V30.888C279.65 29.4373 280.013 28.456 280.696 27.944C281.378 27.3893 282.488 27.112 284.024 27.112C285.133 27.112 285.944 27.368 286.456 27.88C287.01 28.3493 287.288 29.16 287.288 30.312C287.288 35.2187 287.586 41.5973 288.184 49.448C289.592 46.4613 290.893 43.6027 292.088 40.872C293.282 38.1413 294.669 34.6427 296.248 30.376C296.717 29.096 297.272 28.2427 297.912 27.816C298.594 27.3467 299.384 27.112 300.28 27.112C301.474 27.112 302.37 27.368 302.968 27.88C303.565 28.3493 303.864 29.16 303.864 30.312V40.232C303.864 44.4987 303.885 47.5707 303.928 49.448C305.89 46.0347 307.49 43.0693 308.728 40.552C310.008 38.0347 311.437 34.6427 313.016 30.376C313.485 29.096 314.104 28.2427 314.872 27.816C315.64 27.3467 316.6 27.112 317.752 27.112ZM156.112 154.664C156.368 154.579 156.752 154.536 157.264 154.536C158.715 154.536 159.44 155.475 159.44 157.352C159.44 158.376 159.205 159.251 158.736 159.976C158.309 160.659 157.627 161.085 156.688 161.256C152.805 161.981 148.987 162.792 145.232 163.688L145.04 165.224C143.845 173.629 141.456 179.837 137.872 183.848C134.331 187.901 129.893 189.928 124.56 189.928C121.019 189.928 118.267 189.053 116.304 187.304C114.384 185.597 113.424 183.4 113.424 180.712C113.424 176.232 115.429 172.243 119.44 168.744C123.451 165.245 129.531 162.152 137.68 159.464L138.96 150.44C139.131 149.416 139.344 148.051 139.6 146.344C137.595 151.635 135.035 155.581 131.92 158.184C128.805 160.787 125.328 162.088 121.488 162.088C117.819 162.088 115.024 160.979 113.104 158.76C111.184 156.499 110.224 153.597 110.224 150.056C110.224 148.477 110.395 146.749 110.736 144.872C111.077 142.952 111.611 140.371 112.336 137.128C112.976 134.184 113.445 131.837 113.744 130.088C114.085 128.339 114.256 126.781 114.256 125.416C114.256 123.368 113.467 122.344 111.888 122.344C110.651 122.344 109.179 122.963 107.472 124.2C105.808 125.395 104.037 127.251 102.16 129.768C101.563 130.579 100.901 130.984 100.176 130.984C99.5787 130.984 99.0453 130.707 98.576 130.152C98.1493 129.555 97.936 128.893 97.936 128.168C97.936 126.845 98.5333 125.352 99.728 123.688C104.08 117.715 109.179 114.728 115.024 114.728C117.627 114.728 119.653 115.517 121.104 117.096C122.597 118.675 123.344 121 123.344 124.072C123.344 126.291 123.131 128.573 122.704 130.92C122.32 133.224 121.723 136.168 120.912 139.752C120.4 141.885 120.016 143.613 119.76 144.936C119.504 146.216 119.376 147.283 119.376 148.136C119.376 150.312 119.76 151.869 120.528 152.808C121.296 153.747 122.64 154.216 124.56 154.216C126.864 154.216 129.211 152.957 131.6 150.44C134.032 147.88 136.208 144.019 138.128 138.856C140.091 133.693 141.499 127.379 142.352 119.912C142.565 118.035 143.056 116.712 143.824 115.944C144.592 115.133 145.701 114.728 147.152 114.728C150.139 114.728 151.632 116.221 151.632 119.208C151.632 119.72 151.611 120.125 151.568 120.424C150.672 126.781 149.84 132.52 149.072 137.64C148.645 140.712 148.176 143.869 147.664 147.112C147.195 150.355 146.725 153.64 146.256 156.968C149.371 156.115 152.656 155.347 156.112 154.664ZM136.72 166.184C126.395 169.768 121.232 174.12 121.232 179.24C121.232 180.435 121.595 181.416 122.32 182.184C123.088 182.995 124.155 183.4 125.52 183.4C131.451 183.4 135.163 177.811 136.656 166.632L136.72 166.184ZM184.054 154.728C184.608 154.728 185.035 154.984 185.333 155.496C185.675 156.008 185.846 156.712 185.846 157.608C185.846 159.315 185.44 160.637 184.63 161.576C183.051 163.496 180.811 165.267 177.91 166.888C175.051 168.509 171.979 169.32 168.694 169.32C164.214 169.32 160.736 168.104 158.262 165.672C155.787 163.24 154.549 159.912 154.549 155.688C154.549 152.744 155.168 150.013 156.406 147.496C157.643 144.936 159.35 142.909 161.526 141.416C163.744 139.923 166.24 139.176 169.014 139.176C171.488 139.176 173.472 139.923 174.966 141.416C176.459 142.867 177.206 144.851 177.206 147.368C177.206 150.312 176.139 152.851 174.006 154.984C171.915 157.075 168.352 158.739 163.318 159.976C164.384 161.939 166.411 162.92 169.398 162.92C171.318 162.92 173.494 162.259 175.926 160.936C178.4 159.571 180.534 157.8 182.326 155.624C182.838 155.027 183.414 154.728 184.054 154.728ZM167.926 145.448C166.347 145.448 165.003 146.365 163.894 148.2C162.827 150.035 162.294 152.253 162.294 154.856V154.984C164.811 154.387 166.795 153.491 168.246 152.296C169.696 151.101 170.422 149.715 170.422 148.136C170.422 147.325 170.187 146.685 169.718 146.216C169.291 145.704 168.694 145.448 167.926 145.448ZM188.194 169.32C185.549 169.32 183.437 168.36 181.858 166.44C180.279 164.52 179.49 162.003 179.49 158.888C179.49 155.475 180.279 152.253 181.858 149.224C183.437 146.152 185.527 143.699 188.13 141.864C190.775 139.987 193.57 139.048 196.514 139.048C197.453 139.048 198.071 139.24 198.37 139.624C198.711 139.965 198.989 140.605 199.202 141.544C200.098 141.373 201.037 141.288 202.018 141.288C204.109 141.288 205.154 142.035 205.154 143.528C205.154 144.424 204.834 146.557 204.194 149.928C203.213 154.835 202.722 158.248 202.722 160.168C202.722 160.808 202.871 161.32 203.17 161.704C203.511 162.088 203.938 162.28 204.45 162.28C205.261 162.28 206.242 161.768 207.394 160.744C208.546 159.677 210.103 157.971 212.066 155.624C212.578 155.027 213.154 154.728 213.794 154.728C214.349 154.728 214.775 154.984 215.074 155.496C215.415 156.008 215.586 156.712 215.586 157.608C215.586 159.315 215.181 160.637 214.37 161.576C212.621 163.752 210.765 165.587 208.802 167.08C206.839 168.573 204.941 169.32 203.106 169.32C201.698 169.32 200.397 168.851 199.202 167.912C198.05 166.931 197.175 165.608 196.578 163.944C194.359 167.528 191.565 169.32 188.194 169.32ZM190.498 162.856C191.437 162.856 192.333 162.301 193.186 161.192C194.039 160.083 194.658 158.611 195.042 156.776L197.41 145C195.618 145.043 193.954 145.725 192.418 147.048C190.925 148.328 189.73 150.035 188.834 152.168C187.938 154.301 187.49 156.563 187.49 158.952C187.49 160.275 187.746 161.256 188.258 161.896C188.813 162.536 189.559 162.856 190.498 162.856ZM236.241 147.944C237.179 147.944 237.969 148.285 238.609 148.968C239.291 149.608 239.632 150.419 239.632 151.4C239.632 151.955 239.505 152.552 239.249 153.192C238.566 154.771 237.606 156.093 236.369 157.16C235.131 158.227 233.766 158.76 232.273 158.76C231.078 158.76 230.054 158.333 229.201 157.48C228.39 156.627 227.985 155.475 227.985 154.024C227.985 153.213 228.027 152.339 228.113 151.4C228.198 150.717 228.241 150.248 228.241 149.992C228.241 149.651 228.155 149.395 227.985 149.224C227.857 149.053 227.686 148.968 227.473 148.968C226.875 148.968 226.065 149.693 225.041 151.144C224.017 152.552 222.993 154.429 221.969 156.776C220.945 159.123 220.113 161.597 219.473 164.2C219.003 166.248 218.47 167.613 217.873 168.296C217.275 168.979 216.294 169.32 214.929 169.32C213.307 169.32 212.155 168.467 211.473 166.76C210.833 165.053 210.513 162.323 210.513 158.568C210.513 153.021 211.302 147.752 212.881 142.76C213.265 141.523 213.883 140.627 214.737 140.072C215.633 139.475 216.87 139.176 218.449 139.176C219.302 139.176 219.899 139.283 220.241 139.496C220.582 139.709 220.753 140.115 220.753 140.712C220.753 141.395 220.433 142.931 219.793 145.32C219.366 147.027 219.025 148.52 218.769 149.8C218.513 151.08 218.299 152.659 218.129 154.536C219.537 150.867 221.115 147.88 222.865 145.576C224.614 143.272 226.321 141.629 227.985 140.648C229.649 139.667 231.163 139.176 232.529 139.176C233.766 139.176 234.705 139.539 235.345 140.264C236.027 140.947 236.369 141.971 236.369 143.336C236.369 144.147 236.134 145.683 235.665 147.944H236.241Z" fill="white"/>
</svg>
