<svg width="443" height="811" viewBox="0 0 443 811" fill="none" xmlns="http://www.w3.org/2000/svg">
<path d="M0.0601282 -451.939C26.1386 -452.328 51.9661 -449.197 77.7164 -445.898C133.783 -438.677 188.906 -425.826 242.179 -407.558C325.399 -379.481 402.802 -337.519 470.823 -283.604C475.418 -279.898 480.958 -276.933 483.139 -271.003C482.116 -269.817 481.112 -268.594 480.05 -267.445C400.264 -180.387 320.478 -93.2912 240.692 -6.15869C210.142 27.197 179.54 60.4848 148.887 93.7047C142.169 90.61 136.919 85.5325 130.877 81.5298C91.4024 55.4567 47.1017 42.4294 0.0408063 36.8702V-109.506C3.18721 -111.915 4.32585 -115.547 6.06312 -118.771C21.7951 -148.124 46.0209 -167.119 79.782 -174.549C91.3718 -177.084 103.287 -177.965 115.145 -177.162L166.105 -173.753C164.175 -177.199 161.067 -178.256 158.519 -179.849C143.771 -189.115 128.445 -197.546 112.809 -205.403C91.9626 -215.768 73.0473 -229.375 56.8303 -245.671C33.2999 -269.391 16.6992 -296.576 11.97 -329.672C9.67291 -345.831 6.58453 -361.86 3.8821 -377.964C3.32231 -381.336 2.89764 -384.709 0.0214844 -387.229L0.0601282 -451.939Z" fill="#19448C"/>
<path d="M530.99 710.156C529.697 725.092 528.23 739.972 523.944 754.538C519.857 769.047 512.81 782.633 503.213 794.509L501.534 795.862L501.688 795.75C489.122 806.202 474.316 812.725 458.893 818.173C423.665 830.607 388.437 842.986 353.267 855.55C349.831 856.773 345.545 856.791 343.422 860.572H71.4224C71.6155 857.959 69.3374 856.866 67.7546 855.55C40.4793 832.09 23.3578 802.755 13.1079 769.344C6.40972 747.663 3.97746 725.462 2.89648 703.021C4.07397 689.549 3.64921 676.003 5.69534 662.55C13.1849 613.443 29.2837 567.579 59.744 526.903C60.6512 525.68 61.8867 524.587 61.8095 522.882C62.4359 522.651 62.9734 522.241 63.3496 521.708C63.7258 521.174 63.9224 520.543 63.9133 519.899V520.102C66.9052 519.157 68.1602 516.396 70.0133 514.432C104.913 476.091 149.349 457.95 201.911 456.986C241.347 456.319 279.123 464.509 315.896 477.37C368.284 495.697 416.561 520.918 457.793 557.572C487.365 583.867 509.506 614.721 522.014 651.709C528.307 670.796 530.411 690.365 530.99 710.156ZM258.372 812.076C293.502 811.962 328.552 808.861 363.111 802.811C384.595 798.956 405.829 794.194 425.479 784.409C434.11 780.236 441.777 774.439 448.025 767.362C454.273 760.284 458.974 752.073 461.847 743.215C472.367 712.991 468.468 684.268 452.195 656.824C441.517 639.173 427.608 623.516 411.137 610.607C369.887 577.437 322.343 555.441 271.499 539.838C246.887 532.277 221.677 527.959 195.657 528.96C154.483 530.572 122.305 547.676 99.9138 580.847C78.681 612.105 68.1464 648.948 69.7815 686.232C71.0748 721.33 84.1819 751.795 112.538 775.033C132.053 791.044 155.333 799.66 180.099 804.942C206.949 810.816 234.224 811.817 258.372 812.169V812.076Z" fill="white"/>
<path d="M343.424 860.572C345.528 856.866 349.833 856.866 353.269 855.55C388.439 842.986 423.667 830.607 458.895 818.173C474.337 812.725 489.123 806.202 501.69 795.75C501.816 798.18 501.739 800.615 501.458 803.033C499.289 815.065 499.67 827.393 502.578 839.28C489.065 844.709 475.553 850.065 462.215 855.587C459.088 856.884 455.42 857.44 453.374 860.572H343.424Z" fill="#19448C"/>
<path d="M0.0579658 703.225L2.89546 703.021C3.97644 725.462 6.4087 747.663 13.1069 769.344C23.4147 802.7 40.4783 832.09 67.7535 855.55C69.3364 856.921 71.6144 857.959 71.4214 860.572H0L0.0579658 703.225Z" fill="#19448C"/>
<path d="M198.476 188.713C197.239 186.53 196.784 184.016 197.183 181.56C198.032 166.272 193.206 152.448 185.601 139.254C180.683 130.255 174.621 121.877 167.553 114.311C178.091 106.704 189.935 100.928 202.549 97.2445C232.778 88.4979 258.76 97.7633 271.693 119.241C273.391 122.039 275.013 123.373 278.565 122.002C292.212 116.72 305.936 111.662 319.449 106.584C319.449 102.322 317.518 99.4126 316.128 96.3735C307.076 77.3116 295.927 59.2337 282.869 42.4484C276.383 34.0724 276.345 34.0724 285.205 27.2716C357.411 -28.2225 429.618 -83.7165 501.824 -139.211C523.366 -155.796 544.773 -172.566 566.238 -189.244C580.928 -173.678 593.031 -156.259 605.057 -138.803C635.973 -93.7631 660.57 -45.0084 678.215 6.20187C680.435 12.5765 683.292 18.877 683.118 25.8262C665.881 30.6813 648.662 35.592 631.386 40.3915C621.445 43.1526 622.121 42.8376 624.804 51.5101C624.997 52.1031 625.055 52.7146 625.209 53.3632C642.91 117.703 646.327 182.95 638.046 248.828C630.46 309.146 613.473 367.222 591.564 424.056C590.869 425.909 590.946 428.541 587.607 428.949C586.005 427.781 584.171 426.558 582.492 425.242C566.625 411.919 556.413 395 548.306 376.599C539.832 357.382 536.512 336.961 532.439 316.688C524.718 278.459 513.85 241.119 497.693 205.336C488.37 184.748 476.112 166.05 458.933 150.632C438.24 132.101 413.976 121.39 385.446 119.889C364.212 118.759 343.867 122.465 323.83 128.599C292.154 138.291 262.755 152.837 233.337 167.403C220.949 173.276 209.261 180.421 198.476 188.713Z" fill="#19448C"/>
<path d="M63.7984 520.103C63.1035 515.507 65.6126 511.745 67.3306 507.835C85.5334 466.808 105.223 426.41 124.854 385.994C143.79 346.968 162.476 307.812 177.629 267.229C178.497 264.931 179.694 262.745 180.736 260.503C182.666 273.622 184.751 286.724 189.191 299.418C209.363 356.752 248.355 395.779 309.488 413.29C314.623 414.754 316.958 413.791 319.14 409.251C326.726 393.277 334.678 377.47 342.419 361.552C343.461 359.421 345.199 357.327 344.176 354.399C343.075 354.102 341.878 353.732 340.643 353.472C319.78 349.353 300.263 340.453 283.757 327.529C259.454 308.628 244.398 284.556 242.41 254.128C239.997 216.918 255.632 200.018 280.089 188.547C304.101 177.145 330.791 171.94 357.533 173.444C369.121 173.869 380.497 176.552 390.97 181.331C401.443 186.109 410.794 192.883 418.454 201.241C431.966 215.38 440.922 231.928 447.659 249.736C459.886 282.529 468.895 316.347 474.568 350.748C478.776 375.394 483.35 399.911 491.94 423.612C512.337 480.564 551.008 521.653 607.952 546.88C606.022 554.756 601.544 561.705 598.069 568.895C575.523 615.908 552.591 662.754 531.126 710.23C530.547 690.439 528.443 670.871 522.034 651.895C509.526 614.833 487.385 584.053 457.813 557.758C416.581 521.103 368.304 495.883 315.916 477.556C279.143 464.584 241.367 456.486 201.931 457.172C149.369 458.043 104.933 476.184 70.0333 514.617C68.0451 516.452 66.7904 519.158 63.7984 520.103Z" fill="#19448C"/>
<path d="M607.815 546.806C550.922 521.505 512.252 480.415 491.803 423.538C483.31 399.837 478.735 375.357 474.431 350.674C468.758 316.272 459.749 282.454 447.522 249.662C440.785 231.853 431.751 215.305 418.316 201.166C410.656 192.809 401.305 186.035 390.832 181.257C380.359 176.478 368.983 173.795 357.396 173.37C330.653 171.865 303.964 177.07 279.952 188.472C255.495 199.943 239.86 216.843 242.272 254.054C244.203 284.481 259.317 308.553 283.619 327.455C300.126 340.378 319.642 349.279 340.506 353.398C341.741 353.657 342.938 354.028 344.038 354.325C345.061 357.252 343.324 359.346 342.282 361.477C334.561 377.396 326.588 393.203 319.002 409.176C316.86 413.716 314.524 414.736 309.351 413.216C248.218 395.649 209.225 356.678 189.054 299.343C184.614 286.724 182.51 273.622 180.599 260.428C179.733 249.49 179.998 238.497 181.39 227.61C183.147 213.045 188.031 199.813 198.339 188.695C209.08 180.365 220.73 173.176 233.084 167.255C262.502 152.689 291.9 138.142 323.577 128.451C343.613 122.317 363.998 118.611 385.193 119.741C413.722 121.242 437.986 131.953 458.679 150.484C475.859 165.902 488.116 184.599 497.44 205.187C513.674 240.971 524.561 278.311 532.185 316.54C536.258 336.813 539.578 357.308 548.052 376.451C556.16 394.852 566.371 411.771 582.238 425.094C583.917 426.503 585.751 427.726 587.354 428.8C590.693 428.393 590.616 425.706 591.311 423.908C613.22 367.074 630.206 309.016 637.792 248.68C646.073 182.802 642.657 117.554 624.956 53.215C624.802 52.6034 624.744 51.9919 624.551 51.3619C621.868 42.6894 621.192 43.0044 631.133 40.2433C648.409 35.4438 665.628 30.5331 682.865 25.678C686.282 28.9024 687.035 33.2942 688.135 37.4081C705.19 101.16 710.752 167.245 704.581 232.799C697.092 315.595 673.696 394.463 641.711 471.273C632.426 493.511 622.312 515.618 612.506 537.744C611.386 540.931 610.382 544.304 607.815 546.806Z" fill="white"/>
<path d="M566.234 -189.188C544.769 -172.51 523.362 -155.833 501.82 -139.155C429.639 -83.6359 357.433 -28.1418 285.2 27.3275C276.34 34.1284 276.379 34.1284 282.865 42.5044C295.939 59.3055 307.102 77.4022 316.163 96.485C317.591 99.5241 319.541 102.434 319.483 106.696C305.971 111.773 292.246 116.832 278.599 122.113C275.047 123.485 273.426 122.113 271.727 119.352C258.794 97.8749 232.812 88.6094 202.583 97.356C189.969 101.04 178.125 106.816 167.587 114.423C162.163 109.049 156.758 103.657 151.295 98.3196C150.54 97.795 149.929 97.1032 149.512 96.3032C149.095 95.5031 148.886 94.6183 148.901 93.724C179.503 60.4424 210.105 27.1545 240.707 -6.1394C320.493 -93.1979 400.279 -180.293 480.065 -267.426C481.127 -268.575 482.131 -269.798 483.154 -270.984C485.078 -270.829 486.886 -270.036 488.269 -268.742C516.278 -244.17 543.302 -218.523 566.234 -189.188Z" fill="white"/>
<path d="M258.37 812.169C234.222 811.817 206.947 810.816 180.135 805.127C155.388 799.846 132.109 791.229 112.574 775.218C84.2179 751.98 71.1109 721.478 69.8176 686.418C68.1825 649.134 78.717 612.29 99.9499 581.032C122.245 547.862 154.519 530.758 195.693 529.145C221.713 528.145 246.923 532.462 271.535 540.023C322.456 555.626 369.981 577.622 411.173 610.793C427.644 623.702 441.553 639.358 452.231 657.009C468.446 684.453 472.345 713.176 461.883 743.4C459.014 752.255 454.32 760.464 448.079 767.541C441.838 774.618 434.178 780.418 425.554 784.595C405.904 794.379 384.67 799.142 363.186 802.996C328.598 809.02 293.522 812.089 258.37 812.169Z" fill="#19448C"/>
</svg>
