<svg width="363" height="468" viewBox="0 0 363 468" fill="none" xmlns="http://www.w3.org/2000/svg">
<path d="M1.01652 -267.978C18.095 -268.233 35.0092 -266.182 51.8728 -264.022C88.5905 -259.293 124.69 -250.877 159.577 -238.913C214.078 -220.526 264.768 -193.046 309.315 -157.737C312.323 -155.31 315.952 -153.369 317.38 -149.485C316.71 -148.708 316.053 -147.908 315.357 -147.155C263.106 -90.1414 210.855 -33.1035 158.604 23.9587C138.597 45.803 118.556 67.6029 98.4815 89.3582C94.0823 87.3315 90.644 84.0063 86.6873 81.385C60.8356 64.31 31.8236 55.7786 1.00386 52.1379V-43.7222C3.06441 -45.2999 3.81009 -47.6785 4.94782 -49.7901C15.2506 -69.0131 31.1157 -81.4523 53.2255 -86.3187C60.8156 -87.9788 68.619 -88.5554 76.3843 -88.0298L109.758 -85.7969C108.494 -88.0541 106.458 -88.7458 104.79 -89.7895C95.1315 -95.8574 85.0943 -101.379 74.8548 -106.525C61.2025 -113.313 48.815 -122.223 38.1947 -132.896C22.7849 -148.429 11.9133 -166.232 8.81616 -187.907C7.31183 -198.489 5.28928 -208.987 3.51949 -219.533C3.15289 -221.741 2.87478 -223.95 0.991211 -225.601L1.01652 -267.978Z" fill="#FD881E"/>
<path d="M348.718 493.066C347.871 502.847 346.91 512.592 344.104 522.131C341.427 531.633 336.812 540.531 330.527 548.308L329.428 549.194L329.528 549.121C321.299 555.965 311.603 560.237 301.503 563.805C278.432 571.948 255.362 580.055 232.329 588.283C230.079 589.084 227.272 589.096 225.882 591.572H47.7519C47.8784 589.861 46.3865 589.145 45.3499 588.283C27.4876 572.919 16.2749 553.708 9.56235 531.827C5.17578 517.629 3.58292 503.09 2.875 488.394C3.64612 479.571 3.36795 470.7 4.70794 461.889C9.6128 429.73 20.1557 399.694 40.1038 373.056C40.698 372.255 41.5071 371.539 41.4566 370.422C41.8668 370.271 42.2188 370.002 42.4652 369.653C42.7115 369.304 42.8403 368.89 42.8343 368.468V368.602C44.7937 367.983 45.6156 366.175 46.8291 364.888C69.6848 339.779 98.7851 327.899 133.208 327.268C159.034 326.831 183.773 332.195 207.855 340.617C242.164 352.619 273.78 369.136 300.782 393.14C320.149 410.361 334.648 430.567 342.84 454.79C346.961 467.29 348.339 480.105 348.718 493.066ZM170.184 559.813C193.189 559.738 216.143 557.707 238.776 553.745C252.846 551.22 266.751 548.102 279.62 541.694C285.272 538.961 290.294 535.164 294.385 530.529C298.477 525.895 301.555 520.517 303.437 514.716C310.326 494.923 307.773 476.112 297.116 458.139C290.123 446.58 281.014 436.327 270.228 427.873C243.213 406.15 212.077 391.745 178.78 381.526C162.662 376.575 146.152 373.747 129.112 374.403C102.148 375.458 81.0747 386.66 66.4107 408.383C52.5055 428.853 45.6065 452.982 46.6773 477.399C47.5243 500.384 56.108 520.335 74.6782 535.553C87.4586 546.038 102.704 551.682 118.923 555.14C136.507 558.987 154.369 559.643 170.184 559.873V559.813Z" fill="white"/>
<path d="M130.958 151.578C130.147 150.148 129.849 148.502 130.11 146.894C130.667 136.882 127.506 127.829 122.526 119.188C119.305 113.295 115.335 107.808 110.706 102.853C117.607 97.8716 125.364 94.0888 133.625 91.6764C153.421 85.9483 170.437 92.0162 178.906 106.081C180.019 107.914 181.081 108.788 183.407 107.89C192.344 104.431 201.332 101.118 210.181 97.7927C210.181 95.0015 208.917 93.0962 208.007 91.106C202.079 78.6225 194.777 66.7835 186.226 55.791C181.978 50.3056 181.953 50.3056 187.755 45.8518C235.042 9.50932 282.33 -26.8332 329.617 -63.1756C343.725 -74.0371 357.744 -85.02 371.801 -95.9421C381.421 -85.7481 389.347 -74.3405 397.223 -62.9087C417.469 -33.4126 433.578 -1.48363 445.134 32.0535C446.588 36.2282 448.459 40.3543 448.345 44.9052C437.056 48.0848 425.78 51.3008 414.466 54.4439C407.955 56.2522 408.398 56.0459 410.155 61.7254C410.282 62.1137 410.319 62.5142 410.421 62.9389C422.013 105.074 424.25 147.804 418.827 190.947C413.859 230.448 402.735 268.482 388.387 305.702C387.932 306.916 387.982 308.639 385.795 308.906C384.746 308.142 383.545 307.341 382.445 306.479C372.054 297.753 365.367 286.673 360.057 274.623C354.508 262.038 352.334 248.664 349.666 235.388C344.61 210.352 337.493 185.898 326.912 162.464C320.806 148.981 312.779 136.736 301.528 126.639C287.976 114.504 272.086 107.489 253.402 106.506C239.496 105.766 226.172 108.193 213.051 112.21C192.306 118.557 173.053 128.084 153.788 137.622C145.675 141.469 138.02 146.148 130.958 151.578Z" fill="#FD881E"/>
<path d="M42.7594 368.602C42.3043 365.592 43.9475 363.129 45.0726 360.568C56.9934 333.7 69.8877 307.244 82.744 280.776C95.1452 255.218 107.382 229.575 117.306 202.998C117.875 201.493 118.658 200.061 119.341 198.592C120.605 207.185 121.97 215.764 124.878 224.077C138.088 261.625 163.624 287.183 203.659 298.652C207.022 299.61 208.551 298.979 209.98 296.006C214.948 285.545 220.156 275.193 225.225 264.769C225.908 263.373 227.046 262.002 226.376 260.084C225.655 259.89 224.871 259.647 224.062 259.477C210.399 256.78 197.618 250.951 186.808 242.487C170.892 230.109 161.032 214.345 159.73 194.418C158.15 170.049 168.389 158.981 184.406 151.469C200.131 144.002 217.61 140.594 235.123 141.579C242.712 141.857 250.162 143.614 257.02 146.744C263.879 149.873 270.003 154.309 275.02 159.782C283.869 169.042 289.734 179.879 294.146 191.542C302.153 213.017 308.053 235.164 311.768 257.693C314.524 273.834 317.52 289.89 323.145 305.411C336.503 342.708 361.828 369.617 399.12 386.138C397.856 391.296 394.923 395.847 392.648 400.555C377.883 431.344 362.865 462.023 348.807 493.115C348.428 480.154 347.05 467.338 342.853 454.911C334.662 430.64 320.162 410.482 300.795 393.262C273.793 369.257 242.177 352.741 207.868 340.738C183.787 332.243 159.047 326.94 133.221 327.389C98.7985 327.959 69.6982 339.84 46.8425 365.01C45.5405 366.211 44.7188 367.983 42.7594 368.602Z" fill="#FD881E"/>
<path d="M399.032 386.089C361.773 369.52 336.449 342.611 323.057 305.362C317.495 289.841 314.499 273.809 311.68 257.645C307.965 235.115 302.065 212.968 294.058 191.493C289.646 179.83 283.73 168.993 274.931 159.734C269.915 154.26 263.791 149.824 256.932 146.695C250.073 143.565 242.623 141.808 235.035 141.53C217.521 140.545 200.043 143.953 184.318 151.421C168.301 158.933 158.062 170 159.642 194.369C160.906 214.296 170.804 230.06 186.72 242.439C197.529 250.902 210.311 256.731 223.974 259.429C224.783 259.599 225.567 259.841 226.287 260.035C226.957 261.953 225.82 263.324 225.137 264.72C220.08 275.144 214.859 285.496 209.891 295.957C208.488 298.93 206.959 299.598 203.571 298.603C163.535 287.098 138 261.577 124.789 224.029C121.882 215.764 120.504 207.184 119.253 198.544C118.685 191.381 118.859 184.181 119.771 177.051C120.921 167.513 124.119 158.848 130.87 151.566C137.904 146.111 145.534 141.403 153.625 137.525C172.89 127.986 192.143 118.46 212.887 112.113C226.009 108.096 239.358 105.669 253.239 106.409C271.923 107.392 287.813 114.407 301.364 126.542C312.615 136.639 320.643 148.884 326.748 162.367C337.38 185.801 344.509 210.255 349.503 235.291C352.17 248.567 354.344 261.989 359.894 274.525C365.203 286.576 371.891 297.656 382.282 306.382C383.382 307.304 384.583 308.105 385.632 308.809C387.819 308.542 387.768 306.782 388.224 305.605C402.572 268.385 413.696 230.364 418.664 190.85C424.087 147.707 421.85 104.977 410.257 62.8418C410.156 62.4413 410.118 62.0408 409.992 61.6282C408.235 55.9487 407.792 56.155 414.303 54.3468C425.617 51.2036 436.893 47.9877 448.182 44.8081C450.419 46.9197 450.912 49.7959 451.633 52.49C462.802 94.2407 466.445 137.519 462.403 180.449C457.498 234.672 442.177 286.321 421.23 336.624C415.15 351.187 408.526 365.665 402.104 380.155C401.371 382.242 400.713 384.451 399.032 386.089Z" fill="white"/>
<path d="M371.8 -95.9055C357.742 -84.9833 343.723 -74.0612 329.615 -63.139C282.345 -26.7803 235.058 9.56215 187.754 45.8885C181.951 50.3423 181.977 50.3423 186.224 55.8276C194.786 66.8305 202.097 78.6819 208.031 91.179C208.966 93.1693 210.243 95.0746 210.205 97.8658C201.356 101.191 192.368 104.504 183.43 107.963C181.104 108.861 180.042 107.963 178.93 106.155C170.46 92.0892 153.445 86.0213 133.649 91.7494C125.388 94.1618 117.631 97.9446 110.73 102.926C107.178 99.4071 103.638 95.8755 100.06 92.3805C99.566 92.0369 99.1656 91.5839 98.8927 91.0599C98.6198 90.536 98.4825 89.9565 98.4927 89.3708C118.534 67.575 138.574 45.7752 158.615 23.9713C210.866 -33.0424 263.117 -90.0804 315.369 -147.143C316.064 -147.895 316.721 -148.696 317.391 -149.473C318.652 -149.371 319.836 -148.852 320.741 -148.004C339.084 -131.912 356.782 -115.116 371.8 -95.9055Z" fill="white"/>
<path d="M170.182 559.873C154.368 559.642 136.506 558.987 118.947 555.261C102.74 551.803 87.4949 546.16 74.7018 535.674C56.1316 520.456 47.5479 500.481 46.701 477.52C45.6302 453.103 52.5292 428.975 66.4343 408.504C81.0351 386.781 102.171 375.58 129.135 374.524C146.176 373.868 162.686 376.696 178.804 381.647C212.152 391.866 243.275 406.271 270.251 427.994C281.038 436.448 290.147 446.701 297.14 458.26C307.759 476.233 310.312 495.044 303.46 514.837C301.582 520.636 298.508 526.012 294.42 530.647C290.333 535.282 285.317 539.08 279.669 541.815C266.8 548.223 252.895 551.342 238.825 553.866C216.174 557.811 193.203 559.821 170.182 559.873Z" fill="#FD881E"/>
</svg>
